<svg width="1440" height="1507" viewBox="0 0 1440 1507" fill="none" xmlns="http://www.w3.org/2000/svg">
<path d="M1783.02 541.028C1695.14 192.794 1416.36 245.882 1225.21 441.603C1036.05 635.275 861.235 645.857 754.824 571.402C678.189 517.786 500.661 78.828 228.658 12.0281C-15.3436 -47.8909 -265.54 123.695 -229.209 384.796C-164.089 852.904 -528.383 1272.69 -889.242 1136.12C-1090.44 1059.97 -1239.94 1175 -1239.94 1175C-1640.23 1461.25 -1424.59 2381.95 -961.344 2207.99C-729.232 2120.82 446.348 2167.76 698.644 2234.15C975.65 2179.54 958.758 1773.63 1129.83 1709.39C1593.08 1535.43 1873.57 899.843 1783.02 541.028Z" fill="#0578BD"/>
<path d="M1783.02 541.028C1695.14 192.794 1416.36 245.882 1225.21 441.603C1036.05 635.275 861.235 645.857 754.824 571.402C678.189 517.786 500.661 78.828 228.658 12.0281C-15.3436 -47.8909 -265.54 123.695 -229.209 384.796C-164.089 852.904 -528.383 1272.69 -889.242 1136.12C-1090.44 1059.97 -1239.94 1175 -1239.94 1175C-1640.23 1461.25 -1424.59 2381.95 -961.344 2207.99C-729.232 2120.82 446.348 2167.76 698.644 2234.15C975.65 2179.54 958.758 1773.63 1129.83 1709.39C1593.08 1535.43 1873.57 899.843 1783.02 541.028Z" fill="url(#paint0_linear_26_2869)"/>
<defs>
<linearGradient id="paint0_linear_26_2869" x1="723.837" y1="2234.66" x2="-366.223" y2="213.441" gradientUnits="userSpaceOnUse">
<stop stop-color="#0061B0"/>
<stop offset="0.447917" stop-color="#016DC6"/>
<stop offset="1" stop-color="#048BFA"/>
</linearGradient>
</defs>
</svg>
