<svg width="1440" height="1559" viewBox="0 0 1440 1559" fill="none" xmlns="http://www.w3.org/2000/svg">
<path d="M-684.94 1098C-567.226 1460.34 -273.775 1385.17 -83.5679 1165.1C104.648 947.339 290.232 924.217 408.785 995.709C494.164 1047.19 713.689 1499.38 1008.2 1551.48C1272.39 1598.2 1527.18 1399.64 1470.43 1125.94C1368.69 635.248 1727.95 166.366 2121.98 286.198C2341.67 353.013 2493.06 221.137 2493.06 221.137C2899.9 -108.956 2606.48 -1068.1 2124.78 -852.479C1883.42 -744.441 627.281 -713.871 353.806 -766.875C62.3531 -690.213 108.395 -262.018 -69.4933 -182.393C-551.197 33.2238 -806.229 724.646 -684.94 1098Z" fill="#0578BD"/>
<path d="M-684.94 1098C-567.226 1460.34 -273.775 1385.17 -83.5679 1165.1C104.648 947.339 290.232 924.217 408.785 995.709C494.164 1047.19 713.689 1499.38 1008.2 1551.48C1272.39 1598.2 1527.18 1399.64 1470.43 1125.94C1368.69 635.248 1727.95 166.366 2121.98 286.198C2341.67 353.013 2493.06 221.137 2493.06 221.137C2899.9 -108.956 2606.48 -1068.1 2124.78 -852.479C1883.42 -744.441 627.281 -713.871 353.806 -766.875C62.3531 -690.213 108.395 -262.018 -69.4933 -182.393C-551.197 33.2238 -806.229 724.646 -684.94 1098Z" fill="url(#paint0_linear_26_2833)"/>
<defs>
<linearGradient id="paint0_linear_26_2833" x1="326.92" y1="-765.703" x2="1613.88" y2="1306.79" gradientUnits="userSpaceOnUse">
<stop stop-color="#0061B0"/>
<stop offset="0.447917" stop-color="#016DC6"/>
<stop offset="1" stop-color="#048BFA"/>
</linearGradient>
</defs>
</svg>
