<svg width="17" height="14" viewBox="0 0 17 14" fill="none" xmlns="http://www.w3.org/2000/svg">
<path fill-rule="evenodd" clip-rule="evenodd" d="M7.87361 4.30056L7.90795 4.86678L7.33565 4.79745C5.25247 4.53167 3.43256 3.63035 1.88734 2.11658L1.1319 1.36547L0.937322 1.92013C0.525266 3.15657 0.788524 4.46234 1.64698 5.34056C2.10482 5.82589 2.0018 5.89522 1.21203 5.60633C0.937322 5.51389 0.696956 5.44456 0.674064 5.47922C0.593942 5.56011 0.868646 6.61166 1.08612 7.02766C1.38372 7.60543 1.99036 8.17165 2.65423 8.50676L3.21508 8.77254L2.55121 8.78409C1.91023 8.78409 1.88734 8.79565 1.95602 9.03831C2.18494 9.78942 3.08918 10.5867 4.09643 10.9334L4.80608 11.1761L4.18799 11.5459C3.27231 12.0774 2.19639 12.3778 1.12046 12.401C0.605388 12.4125 0.181885 12.4587 0.181885 12.4934C0.181885 12.609 1.5783 13.2561 2.39097 13.5103C4.82897 14.2614 7.72482 13.9378 9.89956 12.6552C11.4448 11.7423 12.99 9.92808 13.7111 8.17165C14.1003 7.23566 14.4894 5.52544 14.4894 4.70501C14.4894 4.17345 14.5238 4.10412 15.1647 3.46857C15.5425 3.09879 15.8973 2.69435 15.966 2.5788C16.0804 2.35924 16.069 2.35924 15.4852 2.55568C14.5123 2.90235 14.375 2.85613 14.8557 2.33613C15.2105 1.96636 15.634 1.29614 15.634 1.09969C15.634 1.06503 15.4623 1.1228 15.2677 1.2268C15.0617 1.34236 14.6039 1.51569 14.2605 1.61969L13.6424 1.81613L13.0816 1.4348C12.7725 1.2268 12.3376 0.995695 12.1086 0.926362C11.5249 0.764585 10.6321 0.787696 10.1056 0.972584C8.67484 1.49258 7.7706 2.83302 7.87361 4.30056Z" fill="#FBFDFF"/>
</svg>
