<svg width="82" height="82" viewBox="0 0 82 82" fill="none" xmlns="http://www.w3.org/2000/svg">
<path d="M69.1875 16.0156C68.3034 16.0156 67.5859 16.7331 67.5859 17.6172C67.5859 18.5013 68.3034 19.2188 69.1875 19.2188C70.0716 19.2188 70.7891 18.5013 70.7891 17.6172C70.7891 16.7331 70.0716 16.0156 69.1875 16.0156Z" fill="black"/>
<path d="M12.8125 16.0156C11.9284 16.0156 11.2109 16.7331 11.2109 17.6172C11.2109 18.5013 11.9284 19.2188 12.8125 19.2188C13.6966 19.2188 14.4141 18.5013 14.4141 17.6172C14.4141 16.7331 13.6966 16.0156 12.8125 16.0156Z" fill="black"/>
<path d="M80.3984 35.2344H78.483C77.8843 30.6212 76.4378 26.2251 74.1677 22.1488C73.7374 21.3762 72.7622 21.0983 71.9893 21.5287C71.2165 21.959 70.9388 22.9344 71.3692 23.7071C73.3724 27.3047 74.6757 31.1749 75.2533 35.2344H73.9922C73.1077 35.2344 72.3906 35.9514 72.3906 36.8359V43.2422C72.3906 44.1267 73.1077 44.8438 73.9922 44.8438H80.3984C81.283 44.8438 82 44.1267 82 43.2422V36.8359C82 35.9514 81.283 35.2344 80.3984 35.2344ZM78.7969 41.6406H75.5938V38.4375H77.0477C77.0481 38.4375 77.0488 38.4375 77.0493 38.4375C77.0499 38.4375 77.0504 38.4375 77.051 38.4375H78.7969V41.6406Z" fill="black"/>
<path d="M58.6141 46.8651C58.6132 46.8403 58.6125 46.8154 58.6105 46.7906C58.6076 46.7567 58.6029 46.7232 58.598 46.6899C58.5949 46.6694 58.5925 46.6489 58.5885 46.6284C58.5812 46.5891 58.5715 46.5507 58.5615 46.5124C58.5576 46.4978 58.5546 46.4833 58.5502 46.4689C58.536 46.421 58.5193 46.374 58.5008 46.3281C58.4987 46.3231 58.4972 46.3178 58.4951 46.3129C58.473 46.2594 58.4482 46.2073 58.4207 46.157L42.4054 16.8491C42.1246 16.3353 41.5857 16.0156 41 16.0156C40.4143 16.0156 39.8754 16.3353 39.5946 16.8492L23.5793 46.1572C23.5518 46.2075 23.527 46.2595 23.5049 46.313C23.5028 46.318 23.5013 46.3231 23.4992 46.3282C23.4807 46.3742 23.464 46.4211 23.4498 46.469C23.4454 46.4834 23.4424 46.498 23.4385 46.5126C23.4283 46.5509 23.4188 46.5891 23.4115 46.6285C23.4076 46.6489 23.4052 46.6694 23.402 46.69C23.3971 46.7233 23.3924 46.7568 23.3895 46.7908C23.3875 46.8156 23.3867 46.8404 23.3859 46.8652C23.3851 46.8854 23.3828 46.9053 23.3828 46.9258C23.3828 46.9364 23.3843 46.9464 23.3844 46.957C23.3849 46.9822 23.3865 47.0071 23.3883 47.0323C23.3903 47.0642 23.3929 47.0959 23.3969 47.1273C23.3998 47.1494 23.4033 47.1713 23.407 47.1934C23.4128 47.228 23.4196 47.2623 23.4277 47.2961C23.4321 47.3151 23.4371 47.3342 23.4424 47.3531C23.4525 47.3896 23.464 47.4255 23.4765 47.4609C23.48 47.471 23.4823 47.4812 23.4861 47.4913L29.262 62.7973C28.7987 63.0269 28.3701 63.332 27.9936 63.7084C27.0858 64.6162 26.5859 65.8226 26.5859 67.1055C26.5859 69.1933 27.925 70.9736 29.7891 71.6347V80.3984C29.7891 81.283 30.5061 82 31.3906 82H50.6094C51.4939 82 52.2109 81.283 52.2109 80.3984V71.6374C52.8786 71.4018 53.4909 71.0182 54.0066 70.5025C54.9142 69.5948 55.4141 68.3883 55.4141 67.1055C55.4141 65.2199 54.322 63.5856 52.7374 62.7993L58.514 47.4913C58.5179 47.4812 58.5201 47.471 58.5237 47.4609C58.5361 47.4255 58.5477 47.3896 58.5578 47.3531C58.5631 47.3342 58.5679 47.3151 58.5725 47.2961C58.5805 47.2623 58.5872 47.228 58.5932 47.1934C58.5968 47.1713 58.6005 47.1494 58.6033 47.1273C58.6073 47.0959 58.6098 47.0642 58.6119 47.0323C58.6135 47.0071 58.6153 46.9822 58.6157 46.957C58.6159 46.9466 58.6173 46.9364 58.6173 46.9258C58.6172 46.9053 58.6149 46.8854 58.6141 46.8651ZM41 45.3242C41.8831 45.3242 42.6016 46.0427 42.6016 46.9258C42.6016 47.8089 41.8831 48.5273 41 48.5273C40.1169 48.5273 39.3984 47.8089 39.3984 46.9258C39.3984 46.0427 40.1169 45.3242 41 45.3242ZM49.0078 78.7969H32.9922V71.9102H49.0078V78.7969ZM51.7415 68.2375C51.4388 68.5403 51.0367 68.707 50.6094 68.707H31.3906C30.5075 68.707 29.7891 67.9886 29.7891 67.1055C29.7891 66.6782 29.9558 66.276 30.2585 65.9735C30.5613 65.6706 30.9633 65.5039 31.3906 65.5039H50.5986C50.6022 65.5039 50.6057 65.5044 50.6092 65.5044C50.611 65.5044 50.6129 65.5042 50.6147 65.5042C51.4954 65.5071 52.2111 66.2241 52.2111 67.1055C52.2109 67.5328 52.0442 67.9349 51.7415 68.2375ZM49.5019 62.3008H32.4981L27.3006 48.5273H31.3906C32.2752 48.5273 32.9922 47.8103 32.9922 46.9258C32.9922 46.0412 32.2752 45.3242 31.3906 45.3242H27.6846L39.3984 23.8879V42.3966C37.5344 43.0577 36.1953 44.8378 36.1953 46.9258C36.1953 49.5751 38.3507 51.7305 41 51.7305C43.6493 51.7305 45.8047 49.5751 45.8047 46.9258C45.8047 44.838 44.4656 43.0577 42.6016 42.3966V23.8879L54.3154 45.3242H50.6094C49.7248 45.3242 49.0078 46.0412 49.0078 46.9258C49.0078 47.8103 49.7248 48.5273 50.6094 48.5273H54.6994L49.5019 62.3008Z" fill="black"/>
<path d="M10.0106 21.5287C9.23765 21.0982 8.2623 21.3759 7.83212 22.1488C5.56223 26.2251 4.11553 30.6212 3.51703 35.2344H1.60156C0.71702 35.2344 0 35.9514 0 36.8359V43.2422C0 44.1267 0.71702 44.8438 1.60156 44.8438H8.00781C8.89235 44.8438 9.60938 44.1267 9.60938 43.2422V36.8359C9.60938 35.9514 8.89235 35.2344 8.00781 35.2344H6.74658C7.32427 31.1749 8.62746 27.3047 10.6307 23.7071C11.061 22.9344 10.7835 21.959 10.0106 21.5287ZM6.40625 41.6406H3.20312V38.4375H4.94899C4.94963 38.4375 4.95011 38.4375 4.95075 38.4375C4.95123 38.4375 4.95187 38.4375 4.95235 38.4375H6.40625V41.6406Z" fill="black"/>
<path d="M77.1953 0C75.1075 0 73.3272 1.33907 72.6661 3.20312H45.8047V1.60156C45.8047 0.71702 45.0877 0 44.2031 0H37.7969C36.9123 0 36.1953 0.71702 36.1953 1.60156V3.20312H9.33391C8.67278 1.33907 6.89248 0 4.80469 0C2.15538 0 0 2.15538 0 4.80469C0 7.45399 2.15538 9.60938 4.80469 9.60938C6.89248 9.60938 8.67278 8.27031 9.33391 6.40625H25.4351C22.0191 7.83564 18.8864 9.69121 16.3079 11.865C15.6316 12.4352 15.5456 13.4456 16.1157 14.1218C16.4325 14.4977 16.8853 14.6911 17.3409 14.6911C17.7054 14.6911 18.0719 14.5675 18.3723 14.3141C22.9675 10.4403 29.5253 7.67357 36.1953 6.74562V8.00781C36.1953 8.89235 36.9123 9.60938 37.7969 9.60938H44.2031C45.0877 9.60938 45.8047 8.89235 45.8047 8.00781V6.74562C52.4747 7.67357 59.0325 10.4403 63.6277 14.314C63.9281 14.5673 64.2946 14.6911 64.6591 14.691C65.1149 14.691 65.5676 14.4975 65.8843 14.1216C66.4546 13.4456 66.3684 12.4352 65.6921 11.865C63.1136 9.69121 59.9809 7.83564 56.5649 6.40625H72.6661C73.3272 8.27031 75.1074 9.60938 77.1953 9.60938C79.8446 9.60938 82 7.45399 82 4.80469C82 2.15538 79.8446 0 77.1953 0ZM4.80469 6.40625C3.92159 6.40625 3.20312 5.68779 3.20312 4.80469C3.20312 3.92159 3.92159 3.20312 4.80469 3.20312C5.68779 3.20312 6.40625 3.92159 6.40625 4.80469C6.40625 5.68779 5.68779 6.40625 4.80469 6.40625ZM42.6016 4.80469V4.94883V6.40625H39.3984V4.94883V4.80469V3.20312H42.6016V4.80469ZM77.1953 6.40625C76.3122 6.40625 75.5938 5.68779 75.5938 4.80469C75.5938 3.92159 76.3122 3.20312 77.1953 3.20312C78.0784 3.20312 78.7969 3.92159 78.7969 4.80469C78.7969 5.68779 78.0784 6.40625 77.1953 6.40625Z" fill="black"/>
</svg>
