<svg width="82" height="82" viewBox="0 0 82 82" fill="none" xmlns="http://www.w3.org/2000/svg">
<path d="M23.8064 58.1936H26.4516V60.8388H23.8064V58.1936Z" fill="black"/>
<path d="M13.2258 58.1936H15.871V60.8388H13.2258V58.1936Z" fill="black"/>
<path d="M18.5161 58.1936H21.1613V60.8388H18.5161V58.1936Z" fill="black"/>
<path d="M78.0323 0H46.2903C44.1028 0 42.3226 1.78019 42.3226 3.96774V10.5806H11.9032C8.25687 10.5806 5.29032 13.5472 5.29032 17.1935V18.5161H3.96774C1.78019 18.5161 0 20.2963 0 22.4839V27.7742C0 29.9617 1.78019 31.7419 3.96774 31.7419H5.29032V34.3871H3.96774C1.78019 34.3871 0 36.1673 0 38.3548V43.6452C0 45.8327 1.78019 47.6129 3.96774 47.6129H5.29032V59.5161C5.29032 63.1625 8.25687 66.129 11.9032 66.129H30.3704C30.1482 68.2385 29.0518 70.151 27.3338 71.4194H23.8065C20.1601 71.4194 17.1935 74.3859 17.1935 78.0323C17.1935 80.2198 18.9737 82 21.1613 82H60.8387C63.0263 82 64.8065 80.2198 64.8065 78.0323C64.8065 74.3859 61.8399 71.4194 58.1936 71.4194H54.6675C52.9495 70.151 51.8531 68.2385 51.6309 66.129H70.0968C73.7431 66.129 76.7097 63.1625 76.7097 59.5161V29.0968H78.0323C80.2198 29.0968 82 27.3166 82 25.129V3.96774C82 1.78019 80.2198 0 78.0323 0ZM2.64516 27.7742V22.4839C2.64516 21.7551 3.239 21.1613 3.96774 21.1613H19.8387C20.5675 21.1613 21.1613 21.7551 21.1613 22.4839V27.7742C21.1613 28.5029 20.5675 29.0968 19.8387 29.0968H3.96774C3.239 29.0968 2.64516 28.5029 2.64516 27.7742ZM2.64516 43.6452V38.3548C2.64516 37.6261 3.239 37.0323 3.96774 37.0323H19.8387C20.5675 37.0323 21.1613 37.6261 21.1613 38.3548V43.6452C21.1613 44.3752 20.5675 44.9677 19.8387 44.9677H3.96774C3.239 44.9677 2.64516 44.3752 2.64516 43.6452ZM62.1613 78.0323C62.1613 78.7623 61.5675 79.3548 60.8387 79.3548H21.1613C20.4325 79.3548 19.8387 78.7623 19.8387 78.0323C19.8387 75.8447 21.6189 74.0645 23.8065 74.0645H58.1936C60.3811 74.0645 62.1613 75.8447 62.1613 78.0323ZM50.9577 71.4194H31.0423C32.1771 69.8918 32.8648 68.0653 33.0156 66.129H48.9857C49.1365 68.0653 49.8243 69.8918 50.9577 71.4194ZM70.0968 63.4839H11.9032C9.71568 63.4839 7.93548 61.7037 7.93548 59.5161V55.5484H74.0645V59.5161C74.0645 61.7037 72.2843 63.4839 70.0968 63.4839ZM74.0645 52.9032H7.93548V47.6129H19.8387C22.0263 47.6129 23.8065 45.8327 23.8065 43.6452V38.3548C23.8065 36.1673 22.0263 34.3871 19.8387 34.3871H7.93548V31.7419H19.8387C22.0263 31.7419 23.8065 29.9617 23.8065 27.7742V22.4839C23.8065 20.2963 22.0263 18.5161 19.8387 18.5161H7.93548V17.1935C7.93548 15.006 9.71568 13.2258 11.9032 13.2258H42.3226V25.129C42.3226 27.3166 44.1028 29.0968 46.2903 29.0968H74.0645V52.9032ZM79.3548 25.129C79.3548 25.8578 78.761 26.4516 78.0323 26.4516H46.2903C45.5616 26.4516 44.9677 25.8578 44.9677 25.129V3.96774C44.9677 3.239 45.5616 2.64516 46.2903 2.64516H78.0323C78.761 2.64516 79.3548 3.239 79.3548 3.96774V25.129Z" fill="black"/>
<path d="M70.7079 11.4958L56.465 5.56273C56.0338 5.38154 55.5762 5.29028 55.108 5.29028C53.1625 5.29028 51.5807 6.87209 51.5807 8.81761V20.2804C51.5807 22.2246 53.1625 23.8064 55.108 23.8064C55.5775 23.8064 56.0338 23.7152 56.465 23.534L70.7092 17.5995C71.9431 17.0851 72.742 15.8868 72.742 14.5483C72.742 13.2099 71.9431 12.0116 70.7079 11.4958ZM69.6895 15.1594L55.4439 21.0938C54.8924 21.3252 54.2258 20.8835 54.2258 20.2791V8.81761C54.2258 8.3309 54.6213 7.93544 55.108 7.93544C55.2244 7.93544 55.3381 7.95793 55.4466 8.0029L69.6908 13.9373C69.9368 14.0405 70.0968 14.2799 70.0968 14.5483C70.0968 14.8168 69.9368 15.0562 69.6895 15.1594Z" fill="black"/>
<path d="M15.871 39.6775H18.5161V42.3227H15.871V39.6775Z" fill="black"/>
<path d="M10.5807 39.6775H13.2258V42.3227H10.5807V39.6775Z" fill="black"/>
<path d="M5.29028 39.6775H7.93544V42.3227H5.29028V39.6775Z" fill="black"/>
<path d="M5.29028 23.8064H18.5161V26.4516H5.29028V23.8064Z" fill="black"/>
<path d="M26.4517 15.8708H39.6775V18.516H26.4517V15.8708Z" fill="black"/>
<path d="M26.4517 21.1614H29.0968V23.8065H26.4517V21.1614Z" fill="black"/>
<path d="M31.7419 21.1614H39.6774V23.8065H31.7419V21.1614Z" fill="black"/>
<path d="M26.4517 26.4517H39.6775V29.0968H26.4517V26.4517Z" fill="black"/>
<path d="M26.4517 31.7419H39.6775V34.3871H26.4517V31.7419Z" fill="black"/>
<path d="M26.4517 37.0322H39.6775V39.6774H26.4517V37.0322Z" fill="black"/>
<path d="M26.4517 42.3225H39.6775V44.9677H26.4517V42.3225Z" fill="black"/>
<path d="M26.4517 47.6128H39.6775V50.258H26.4517V47.6128Z" fill="black"/>
<path d="M63.4839 50.258H71.4194V42.3225H63.4839V50.258ZM66.129 44.9677H68.7742V47.6128H66.129V44.9677Z" fill="black"/>
<path d="M52.9032 50.258H60.8387V42.3225H52.9032V50.258ZM55.5484 44.9677H58.1935V47.6128H55.5484V44.9677Z" fill="black"/>
<path d="M42.3226 50.258H50.2581V42.3225H42.3226V50.258ZM44.9678 44.9677H47.613V47.6128H44.9678V44.9677Z" fill="black"/>
<path d="M42.3226 31.7419H44.9678V34.3871H42.3226V31.7419Z" fill="black"/>
<path d="M47.6129 31.7419H71.4194V34.3871H47.6129V31.7419Z" fill="black"/>
<path d="M42.3226 37.0322H71.4194V39.6774H42.3226V37.0322Z" fill="black"/>
</svg>
