<svg width="82" height="82" viewBox="0 0 82 82" fill="none" xmlns="http://www.w3.org/2000/svg">
<path d="M80.3984 0H54.9544C54.3066 0 53.7227 0.390301 53.4747 0.988644C53.227 1.58715 53.3641 2.27598 53.822 2.73403L59.815 8.72707L39.644 28.8981L21.0149 10.2691C20.3893 9.64381 19.3755 9.64381 18.7498 10.2691L0.473266 28.5456C-0.152144 29.171 -0.152144 30.1851 0.473266 30.8107C0.786051 31.1233 1.19589 31.2798 1.60573 31.2798C2.01557 31.2798 2.42541 31.1233 2.7382 30.8107L19.8824 13.6666L42.1936 35.9778C42.5064 36.2904 42.9163 36.4469 43.3261 36.4469C43.736 36.4469 44.1458 36.2904 44.4586 35.9778C45.084 35.3524 45.084 34.3383 44.4586 33.7127L41.9091 31.1632L62.0799 10.9922L71.0229 19.9351L54.7682 36.19C54.1428 36.8154 54.1428 37.8295 54.7682 38.4551C55.0809 38.7677 55.4908 38.9242 55.9006 38.9242C56.3105 38.9242 56.7203 38.7677 57.0331 38.4551L73.2878 22.2002L79.2658 28.1782C79.5722 28.4846 79.9819 28.6473 80.3986 28.6473C80.6049 28.6473 80.8131 28.6074 81.0112 28.5254C81.6095 28.2775 81.9998 27.6936 81.9998 27.0457V1.60156C82 0.71718 81.2828 0 80.3984 0ZM78.7969 23.1791L58.8209 3.20312H78.7969V23.1791Z" fill="#0061B0"/>
<path d="M53.0692 40.1544C52.7715 39.8549 52.3583 39.6851 51.9371 39.6851C51.5159 39.6851 51.1027 39.8549 50.8048 40.1544C50.5053 40.4523 50.3355 40.8655 50.3355 41.2867C50.3355 41.7079 50.5053 42.1211 50.8048 42.4188C51.1027 42.7167 51.5159 42.8883 51.9371 42.8883C52.3583 42.8883 52.7715 42.7169 53.0692 42.4188C53.3671 42.1211 53.5386 41.7079 53.5386 41.2867C53.5386 40.8655 53.3673 40.4523 53.0692 40.1544Z" fill="#0061B0"/>
<path d="M30.828 42.4983L22.1472 33.8176L24.732 31.2329C25.3575 30.6075 25.3575 29.5934 24.7321 28.9679C24.1066 28.3427 23.0928 28.3427 22.467 28.9679L0.472623 50.9624C-0.152787 51.5878 -0.152787 52.6019 0.472623 53.2275C0.785409 53.5401 1.19525 53.6966 1.60509 53.6966C2.01493 53.6966 2.42477 53.5401 2.73755 53.2275L19.8823 36.0827L28.5631 44.7634C28.8759 45.076 29.2857 45.2325 29.6955 45.2325C30.1054 45.2325 30.5152 45.076 30.828 44.7634C31.4534 44.1379 31.4534 43.1238 30.828 42.4983Z" fill="#0061B0"/>
<path d="M41.0748 58.7617L41 58.7615C40.1156 58.7615 39.3984 59.4787 39.3984 60.3631C39.3984 61.2474 40.1156 61.9646 41 61.9646L41.0511 61.9648C41.0551 61.9648 41.0593 61.9648 41.0633 61.9648C41.942 61.9648 42.6579 61.2554 42.6645 60.3751C42.6711 59.4907 41.9593 58.7682 41.0748 58.7617Z" fill="#0061B0"/>
<path d="M80.3984 78.7969H77.5893V71.6198C77.5893 70.8843 77.0885 70.2434 76.3748 70.0658L68.9309 68.2112L66.2624 61.7723L70.2141 55.1983C70.593 54.5679 70.4941 53.7606 69.974 53.2406L63.7673 47.0339C63.2471 46.5138 62.4398 46.415 61.8096 46.7938L55.2355 50.7455L48.7967 48.0771L46.9421 40.6332C46.7645 39.9196 46.1236 39.4188 45.3881 39.4188H36.6117C35.8763 39.4188 35.2353 39.9196 35.0577 40.6332L33.2031 48.0771L26.7644 50.7455L20.1903 46.7938C19.5599 46.4147 18.7527 46.5138 18.2325 47.0339L12.026 53.2407C11.5059 53.7608 11.407 54.5681 11.7859 55.1985L15.7376 61.7723L13.0692 68.2112L5.62533 70.0658C4.91167 70.2434 4.41086 70.8843 4.41086 71.6198V78.7969H1.60156C0.71718 78.7969 0 79.514 0 80.3984C0 81.2828 0.71718 82 1.60156 82H80.3984C81.2828 82 82 81.2828 82 80.3984C82 79.514 81.2828 78.7969 80.3984 78.7969ZM74.3858 78.7969H58.0179C58.9074 73.3565 57.149 67.7674 53.1946 63.8128C51.4606 62.0788 49.4279 60.7599 47.1535 59.8927C46.3271 59.5775 45.4017 59.992 45.0865 60.8185C44.7714 61.6449 45.186 62.5703 46.0124 62.8855C47.8624 63.5908 49.5169 64.6648 50.9297 66.0777C54.2749 69.4231 55.6902 74.2055 54.7624 78.7967H27.2363C26.3087 74.2053 27.724 69.4229 31.0694 66.0777C32.496 64.6511 34.1684 63.5703 36.0398 62.8653C36.8676 62.5537 37.2858 61.6297 36.9742 60.802C36.6623 59.9743 35.7385 59.5563 34.9109 59.8677C32.6101 60.7343 30.5554 62.0615 28.8043 63.8126C24.85 67.7671 23.0915 73.356 23.981 78.7967H7.61383V72.8714L14.6268 71.1243C15.1196 71.0014 15.5247 70.6524 15.7192 70.1833L19.0057 62.2524C19.2002 61.7831 19.1606 61.2495 18.8988 60.8142L15.1758 54.6208L19.6126 50.184L25.8061 53.907C26.2414 54.1688 26.7756 54.2086 27.2443 54.014L35.1751 50.7274C35.6442 50.533 35.9934 50.1278 36.116 49.635L37.8632 42.622H44.1365L45.8836 49.635C46.0063 50.1278 46.3555 50.533 46.8246 50.7274L54.7553 54.014C55.2244 54.2086 55.7584 54.169 56.1935 53.907L62.3871 50.184L66.8239 54.6208L63.1009 60.8142C62.8391 61.2497 62.7995 61.7833 62.9939 62.2524L66.2805 70.1833C66.4749 70.6524 66.8801 71.0014 67.3729 71.1243L74.3858 72.8714V78.7969Z" fill="#0061B0"/>
</svg>
