<svg width="82" height="82" viewBox="0 0 82 82" fill="none" xmlns="http://www.w3.org/2000/svg">
<path d="M76.5333 10.9333V13.6667C78.0432 13.6667 79.2667 14.8902 79.2667 16.4V57.4H2.73333V16.4C2.73333 14.8902 3.95684 13.6667 5.46667 13.6667V10.9333C2.4477 10.9333 0 13.381 0 16.4V62.8667C0 65.8857 2.4477 68.3334 5.46667 68.3334H32.3299L29.0499 79.2667H25.9667V82H56.0333V79.2667H52.9501L49.6701 68.3334H76.5333C79.5523 68.3334 82 65.8857 82 62.8667V16.4C82 13.381 79.5523 10.9333 76.5333 10.9333ZM50.0965 79.2667H31.9035L35.1835 68.3334H46.8165L50.0965 79.2667ZM79.2667 62.8667C79.2667 64.3765 78.0432 65.6 76.5333 65.6H5.46667C3.95684 65.6 2.73333 64.3765 2.73333 62.8667V60.1334H79.2667V62.8667Z" fill="black"/>
<path d="M13.6667 54.6667H68.3333C71.3523 54.6667 73.8 52.219 73.8 49.2V5.46667C73.8 2.4477 71.3523 0 68.3333 0H13.6667C10.6477 0 8.20001 2.4477 8.20001 5.46667V49.2C8.20001 52.219 10.6477 54.6667 13.6667 54.6667ZM10.9333 5.46667C10.9333 3.95684 12.1569 2.73333 13.6667 2.73333H68.3333C69.8432 2.73333 71.0667 3.95684 71.0667 5.46667V49.2C71.0667 50.7098 69.8432 51.9333 68.3333 51.9333H13.6667C12.1569 51.9333 10.9333 50.7098 10.9333 49.2V5.46667Z" fill="black"/>
<path d="M13.6667 10.9333H68.3333V13.6667H13.6667V10.9333Z" fill="black"/>
<path d="M13.6667 17.7666H21.8667V20.4999H13.6667V17.7666Z" fill="black"/>
<path d="M13.6667 24.6001H21.8667V27.3334H13.6667V24.6001Z" fill="black"/>
<path d="M13.6667 45.1001H20.5V47.8334H13.6667V45.1001Z" fill="black"/>
<path d="M13.6667 5.46655H16.4V8.19989H13.6667V5.46655Z" fill="black"/>
<path d="M19.1334 5.46655H21.8667V8.19989H19.1334V5.46655Z" fill="black"/>
<path d="M24.6 5.46655H27.3333V8.19989H24.6V5.46655Z" fill="black"/>
<path d="M56.8342 35.5332L60.5338 39.2328L62.4662 37.3003L58.3662 33.2003C58.11 32.9441 57.7625 32.7999 57.4 32.7999H53.0523C52.8794 31.8654 52.6163 30.9501 52.2654 30.0666H54.6667C55.3158 30.0666 55.8758 29.6094 56.006 28.9732L57.3727 22.1399L54.694 21.5932L53.5477 27.3332H50.8144C49.7005 25.6697 48.2112 24.2907 46.4667 23.3084V21.8666C46.4667 18.8476 44.019 16.3999 41 16.3999C37.981 16.3999 35.5333 18.8476 35.5333 21.8666V23.2332H35.67C33.8633 24.2176 32.3223 25.6246 31.1791 27.3332H28.4458L27.2992 21.5932L24.6208 22.129L25.9875 28.9623C26.1129 29.6053 26.6777 30.0693 27.3333 30.0666H29.7346C29.3837 30.9501 29.1206 31.8654 28.9477 32.7999H24.6C24.2375 32.7999 23.89 32.9441 23.6338 33.2003L19.5338 37.3003L21.4662 39.2328L25.1658 35.5332H28.7C28.7 36.4506 28.7827 37.3649 28.9477 38.2666H27.3333C26.7737 38.2662 26.2714 38.6062 26.063 39.1248L23.3297 45.9582L25.8703 46.975L28.2579 40.9999H29.7346C31.4419 45.7935 35.9143 49.0482 41 49.1999C46.0867 49.0482 50.5585 45.7935 52.2654 40.9999H53.7421L56.1297 46.975L58.6703 45.9582L55.937 39.1248C55.7286 38.6062 55.2263 38.2662 54.6667 38.2666H53.0523C53.2173 37.3649 53.3 36.4506 53.3 35.5332H56.8342ZM38.2667 21.8666C38.2667 20.3567 39.4902 19.1332 41 19.1332C42.5098 19.1332 43.7333 20.3567 43.7333 21.8666V22.2178C41.9403 21.7497 40.0597 21.7497 38.2667 22.2178V21.8666ZM39.6333 46.3429C35.0054 45.5799 31.4333 41.03 31.4333 35.5332C31.4285 33.6349 31.8713 31.7616 32.7276 30.0666H39.6333V46.3429ZM34.6945 27.3332C36.3277 25.5901 38.6104 24.5999 41 24.5999C43.3896 24.5999 45.6723 25.5901 47.3054 27.3332H34.6945ZM42.3667 46.3429V30.0666H49.2724C50.1286 31.7616 50.5714 33.6349 50.5667 35.5332C50.5667 41.03 46.9945 45.5799 42.3667 46.3429Z" fill="black"/>
<path d="M13.6667 31.4333H17.7667V34.1667H13.6667V31.4333Z" fill="black"/>
<path d="M13.6667 38.2666H16.4V40.9999H13.6667V38.2666Z" fill="black"/>
<path d="M60.1334 17.7666H68.3334V20.4999H60.1334V17.7666Z" fill="black"/>
<path d="M60.1334 24.6001H68.3334V27.3334H60.1334V24.6001Z" fill="black"/>
<path d="M61.5 45.1001H68.3333V47.8334H61.5V45.1001Z" fill="black"/>
<path d="M64.2333 31.4333H68.3333V34.1667H64.2333V31.4333Z" fill="black"/>
<path d="M65.6 38.2666H68.3333V40.9999H65.6V38.2666Z" fill="black"/>
</svg>
