<svg width="17" height="14" viewBox="0 0 17 14" fill="none" xmlns="http://www.w3.org/2000/svg">
<path fill-rule="evenodd" clip-rule="evenodd" d="M7.87349 4.3005L7.90783 4.86672L7.33553 4.79739C5.25235 4.53161 3.43243 3.63028 1.88722 2.11652L1.13178 1.36541L0.9372 1.92007C0.525144 3.15651 0.788402 4.46228 1.64685 5.3405C2.10469 5.82583 2.00168 5.89516 1.21191 5.60627C0.9372 5.51383 0.696834 5.44449 0.673942 5.47916C0.59382 5.56005 0.868524 6.6116 1.086 7.0276C1.3836 7.60537 1.99023 8.17159 2.6541 8.5067L3.21496 8.77247L2.55109 8.78403C1.91011 8.78403 1.88722 8.79559 1.9559 9.03825C2.18482 9.78936 3.08905 10.5867 4.0963 10.9334L4.80596 11.176L4.18787 11.5458C3.27219 12.0773 2.19626 12.3778 1.12034 12.4009C0.605266 12.4125 0.181763 12.4587 0.181763 12.4933C0.181763 12.6089 1.57818 13.256 2.39085 13.5102C4.82885 14.2613 7.72469 13.9378 9.89944 12.6551C11.4447 11.7422 12.9899 9.92802 13.711 8.17159C14.1001 7.2356 14.4893 5.52538 14.4893 4.70494C14.4893 4.17339 14.5236 4.10406 15.1646 3.46851C15.5423 3.09873 15.8972 2.69429 15.9658 2.57873C16.0803 2.35918 16.0688 2.35918 15.4851 2.55562C14.5122 2.90229 14.3748 2.85607 14.8556 2.33607C15.2104 1.96629 15.6339 1.29608 15.6339 1.09963C15.6339 1.06497 15.4622 1.12274 15.2676 1.22674C15.0616 1.3423 14.6038 1.51563 14.2604 1.61963L13.6423 1.81607L13.0814 1.43474C12.7724 1.22674 12.3374 0.995633 12.1085 0.926301C11.5248 0.764524 10.632 0.787635 10.1055 0.972523C8.67471 1.49252 7.77048 2.83296 7.87349 4.3005Z" fill="#026DC6"/>
</svg>
