<svg width="17" height="11" viewBox="0 0 17 11" fill="none" xmlns="http://www.w3.org/2000/svg">
<path fill-rule="evenodd" clip-rule="evenodd" d="M5.38837 6.67277V4.89615H10.3049C10.3495 5.15524 10.3867 5.41433 10.3867 5.75485C10.3867 8.71589 8.39333 10.8182 5.38837 10.8182C2.50986 10.8182 0.181763 8.50121 0.181763 5.63641C0.181763 2.7716 2.50986 0.45459 5.38837 0.45459C6.79416 0.45459 7.96937 0.965369 8.8768 1.80927L7.46358 3.16394C7.0768 2.79381 6.39994 2.36446 5.38837 2.36446C3.61069 2.36446 2.16028 3.83017 2.16028 5.63641C2.16028 7.44264 3.61069 8.90836 5.38837 8.90836C7.44871 8.90836 8.22226 7.43524 8.34127 6.67277H5.38837ZM15.0578 4.89611H16.5454V6.37663H15.0578V7.85715H13.5702V6.37663H12.0826V4.89611H13.5702V3.41559H15.0578V4.89611Z" fill="#016DC6"/>
</svg>
