<svg width="74" height="82" viewBox="0 0 74 82" fill="none" xmlns="http://www.w3.org/2000/svg">
<path d="M71.7736 47.8678C73.1482 45.8047 73.8359 43.2305 73.8359 41C73.8359 37.6374 72.3422 34.5132 69.7789 32.3946C70.3461 31.0391 70.6328 29.6292 70.6328 28.1875C70.6328 23.7263 68.0293 19.5706 64.1585 17.63C64.7458 12.759 61.5718 8.29417 56.8682 7.1553C55.0272 2.89947 50.9296 0 46.6094 0C42.5879 0 38.981 2.34565 37 5.76819C35.0189 2.34565 31.412 0 27.3906 0C23.0701 0 18.9725 2.89947 17.1318 7.15546C12.4 8.30154 9.25581 12.7886 9.8415 17.63C5.97085 19.5705 3.36719 23.7263 3.36719 28.1875C3.36719 29.6292 3.65387 31.0391 4.22114 32.3946C1.65784 34.5134 0.164062 37.6374 0.164062 41C0.164062 43.2422 0.857539 45.813 2.22639 47.8677C0.888769 49.7559 0.164062 51.9938 0.164062 54.293C0.164062 57.2744 1.37292 60.1147 3.51117 62.2236C2.41186 68.8688 7.71143 75.5938 14.5781 75.5938C14.6278 75.5938 14.6766 75.5929 14.7245 75.5915C17.0011 79.5189 21.227 82 25.7891 82C30.5438 82 34.7924 79.146 37 75.0342C39.2076 79.146 43.4562 82 48.2109 82C52.773 82 56.9989 79.5189 59.2755 75.5915C59.3235 75.5929 59.3722 75.5938 59.4219 75.5938C65.4988 75.5938 70.6328 70.2397 70.6328 63.9023C70.6328 63.3628 70.5854 62.8078 70.4888 62.2236C72.6271 60.1147 73.8359 57.2746 73.8359 54.293C73.8359 51.9938 73.1112 49.7559 71.7736 47.8678ZM35.3984 24.2446C34.4554 23.6977 33.3617 23.3828 32.1953 23.3828C31.3108 23.3828 30.5938 24.0998 30.5938 24.9844C30.5938 25.8689 31.3108 26.5859 32.1953 26.5859C33.9615 26.5859 35.3984 28.0229 35.3984 29.7891V60.2458C33.0488 57.5807 29.6131 55.8945 25.7891 55.8945C24.9045 55.8945 24.1875 56.6115 24.1875 57.4961C24.1875 58.3806 24.9045 59.0977 25.7891 59.0977C31.0877 59.0977 35.3984 63.4084 35.3984 68.707C35.3984 74.1762 30.9978 78.7969 25.7891 78.7969C22.0811 78.7969 18.6677 76.6042 17.0927 73.2106C16.8024 72.5852 16.1448 72.2164 15.4591 72.2936C15.3459 72.3065 15.2333 72.3216 15.1207 72.337C10.5627 72.9603 5.42968 67.799 6.8192 62.025C6.96189 61.4319 6.75529 60.8096 6.28652 60.4194C4.43127 58.8757 3.36719 56.6426 3.36719 54.293C3.36719 52.8402 3.77799 51.4185 4.54241 50.1718C6.46333 51.7462 8.8527 52.6914 11.375 52.6914C12.2595 52.6914 12.9766 51.9744 12.9766 51.0898C12.9766 50.2053 12.2595 49.4883 11.375 49.4883C7.02852 49.4883 3.36719 45.5212 3.36719 41C3.36719 38.2573 4.76519 35.7342 7.10716 34.2507C7.82866 33.7936 8.06457 32.8508 7.6432 32.1078C6.9313 30.8523 6.57031 29.5333 6.57031 28.1875C6.57031 23.8649 10.0941 19.6992 14.5781 19.6992C18.844 19.6992 22.5859 23.6658 22.5859 28.1875C22.5859 29.072 23.303 29.7891 24.1875 29.7891C25.072 29.7891 25.7891 29.072 25.7891 28.1875C25.7891 21.8501 20.6551 16.4961 14.5781 16.4961C14.0419 16.4961 13.5086 16.5395 12.9806 16.6217C12.9798 16.5795 12.9766 16.5385 12.9766 16.4961C12.9766 12.9219 15.8781 10.0898 19.3828 10.0898C21.0936 10.0898 22.7029 10.7563 23.914 11.9661C24.5397 12.5912 25.5536 12.5905 26.1789 11.965C26.804 11.3391 26.8035 10.3251 26.1778 9.70002C24.7167 8.24052 22.8686 7.30969 20.8659 7.00123C22.2783 4.90462 24.627 3.20312 27.3906 3.20312C31.6565 3.20312 35.3984 7.16955 35.3984 11.6914V24.2446ZM62.625 52.6914C65.1475 52.6914 67.5368 51.746 69.4577 50.1723C70.222 51.4188 70.6328 52.8404 70.6328 54.293C70.6328 56.6426 69.5687 58.8757 67.7136 60.4194C67.2447 60.8096 67.0383 61.4321 67.181 62.025C67.3507 62.7302 67.4297 63.3267 67.4297 63.9022C67.4297 68.8734 62.9333 72.8911 58.8794 72.337C58.7668 72.3216 58.6541 72.3064 58.5409 72.2936C57.8543 72.2159 57.1975 72.5852 56.9074 73.2106C55.3324 76.6042 51.9187 78.7969 48.2109 78.7969C43.0022 78.7969 38.6016 74.1762 38.6016 68.707C38.6016 63.4084 42.9123 59.0977 48.2109 59.0977C49.0953 59.0977 49.8125 58.3806 49.8125 57.4961C49.8125 56.6115 49.0953 55.8945 48.2109 55.8945C44.3869 55.8945 40.9512 57.5807 38.6016 60.2458V29.7891C38.6016 28.0229 40.0385 26.5859 41.8047 26.5859C42.6891 26.5859 43.4062 25.8689 43.4062 24.9844C43.4062 24.0998 42.6891 23.3828 41.8047 23.3828C40.6383 23.3828 39.5446 23.6977 38.6016 24.2446V11.6914C38.6016 7.16955 42.3435 3.20312 46.6094 3.20312C49.373 3.20312 51.7216 4.90462 53.134 7.00107C51.1314 7.30953 49.2835 8.24036 47.8222 9.69986C47.1963 10.325 47.1957 11.3389 47.8208 11.9648C48.4459 12.5907 49.4602 12.5912 50.0857 11.9661C51.2973 10.7563 52.9064 10.0898 54.6172 10.0898C58.1395 10.0898 61.0234 12.9385 61.0234 16.4961C61.0234 16.5384 61.0202 16.5795 61.0194 16.6217C60.4914 16.5395 59.9581 16.4961 59.4219 16.4961C53.3449 16.4961 48.2109 21.8501 48.2109 28.1875C48.2109 29.072 48.9281 29.7891 49.8125 29.7891C50.6969 29.7891 51.4141 29.072 51.4141 28.1875C51.4141 23.6658 55.156 19.6992 59.4219 19.6992C63.9034 19.6992 67.4297 23.8628 67.4297 28.1875C67.4297 29.5333 67.0687 30.8523 66.3568 32.1078C65.9356 32.8508 66.1715 33.7936 66.893 34.2507C69.2348 35.7342 70.6328 38.2573 70.6328 41C70.6328 45.5374 66.9587 49.4883 62.625 49.4883C61.7406 49.4883 61.0234 50.2053 61.0234 51.0898C61.0234 51.9744 61.7406 52.6914 62.625 52.6914Z" fill="black"/>
</svg>
