<svg width="237" height="35" viewBox="0 0 237 35" fill="none" xmlns="http://www.w3.org/2000/svg">
<path d="M24.7249 33.9781V16.9891L17.6484 28.6557C17.5632 28.826 17.4211 28.9396 17.2221 28.9963C17.0232 29.0531 16.8527 29.0815 16.7106 29.0815C16.5401 29.0815 16.3554 29.0531 16.1564 28.9963C15.9575 28.9396 15.8154 28.826 15.7301 28.6557L8.6537 16.9891V33.9781H0V0.936739H8.09952C8.38372 0.936739 8.62528 1.06448 8.82422 1.31995L16.668 14.3917L24.5543 1.31995C24.7533 1.06448 24.9806 0.936739 25.2364 0.936739H33.3786V33.9781H24.7249Z" fill="#0484EE"/>
<path d="M24.7249 33.9781V16.9891L17.6484 28.6557C17.5632 28.826 17.4211 28.9396 17.2221 28.9963C17.0232 29.0531 16.8527 29.0815 16.7106 29.0815C16.5401 29.0815 16.3554 29.0531 16.1564 28.9963C15.9575 28.9396 15.8154 28.826 15.7301 28.6557L8.6537 16.9891V33.9781H0V0.936739H8.09952C8.38372 0.936739 8.62528 1.06448 8.82422 1.31995L16.668 14.3917L24.5543 1.31995C24.7533 1.06448 24.9806 0.936739 25.2364 0.936739H33.3786V33.9781H24.7249Z" fill="url(#paint0_linear_26_2938)"/>
<path d="M59.8006 33.9781L58.0954 29.4221H47.9071L46.2019 33.9781H36.8662L49.1007 0.936739H56.9018L69.1364 33.9781H59.8006ZM53.0226 13.0292L50.3796 21.7579H55.6229L53.0226 13.0292Z" fill="#0484EE"/>
<path d="M59.8006 33.9781L58.0954 29.4221H47.9071L46.2019 33.9781H36.8662L49.1007 0.936739H56.9018L69.1364 33.9781H59.8006ZM53.0226 13.0292L50.3796 21.7579H55.6229L53.0226 13.0292Z" fill="url(#paint1_linear_26_2938)"/>
<path d="M71.8503 33.9781V0.936739H80.7598V33.9781H71.8503Z" fill="#0484EE"/>
<path d="M71.8503 33.9781V0.936739H80.7598V33.9781H71.8503Z" fill="url(#paint2_linear_26_2938)"/>
<path d="M105.76 33.9781L104.055 29.4221H93.8666L92.1614 33.9781H82.8256L95.0602 0.936739H102.861L115.096 33.9781H105.76ZM98.982 13.0292L96.339 21.7579H101.582L98.982 13.0292Z" fill="#0484EE"/>
<path d="M105.76 33.9781L104.055 29.4221H93.8666L92.1614 33.9781H82.8256L95.0602 0.936739H102.861L115.096 33.9781H105.76ZM98.982 13.0292L96.339 21.7579H101.582L98.982 13.0292Z" fill="url(#paint3_linear_26_2938)"/>
<path d="M140.924 9.11192H131.844V33.9781H122.85V9.11192H113.77L113.173 8.51581V0.936739H141.521V8.51581L140.924 9.11192Z" fill="#0484EE"/>
<path d="M140.924 9.11192H131.844V33.9781H122.85V9.11192H113.77L113.173 8.51581V0.936739H141.521V8.51581L140.924 9.11192Z" fill="url(#paint4_linear_26_2938)"/>
<path d="M144.986 33.9781V0.936739H171.374V8.81387H153.597V13.5401H170.35V21.4173H153.597V26.1436H171.374V33.9781H144.986Z" fill="#0484EE"/>
<path d="M144.986 33.9781V0.936739H171.374V8.81387H153.597V13.5401H170.35V21.4173H153.597V26.1436H171.374V33.9781H144.986Z" fill="url(#paint5_linear_26_2938)"/>
<path d="M190.797 35C188.353 35 186.065 34.5458 183.934 33.6375C181.831 32.7007 179.984 31.4376 178.392 29.8479C176.829 28.2299 175.593 26.3706 174.683 24.2701C173.774 22.1411 173.319 19.8844 173.319 17.5C173.319 15.1156 173.774 12.8731 174.683 10.7725C175.593 8.64355 176.829 6.78427 178.392 5.19465C179.984 3.57664 181.831 2.31346 183.934 1.40511C186.065 0.46837 188.353 0 190.797 0C193.014 0 195.145 0.411597 197.191 1.23479C199.238 2.0296 201.128 3.19343 202.861 4.72628L196.04 10.6873C194.392 9.52352 192.659 8.94161 190.84 8.94161C189.646 8.94161 188.538 9.16869 187.515 9.62287C186.492 10.077 185.611 10.7015 184.872 11.4964C184.133 12.2912 183.55 13.2137 183.124 14.264C182.698 15.2859 182.484 16.3646 182.484 17.5C182.484 18.6638 182.698 19.7709 183.124 20.8212C183.55 21.8431 184.133 22.7514 184.872 23.5462C185.611 24.3126 186.477 24.9371 187.472 25.4197C188.495 25.8739 189.603 26.101 190.797 26.101C192.161 26.101 193.426 25.7887 194.591 25.1642C195.785 24.5397 196.822 23.6598 197.703 22.5243L204.737 28.2299C202.975 30.3873 200.886 32.062 198.47 33.2543C196.083 34.4181 193.525 35 190.797 35Z" fill="#0484EE"/>
<path d="M190.797 35C188.353 35 186.065 34.5458 183.934 33.6375C181.831 32.7007 179.984 31.4376 178.392 29.8479C176.829 28.2299 175.593 26.3706 174.683 24.2701C173.774 22.1411 173.319 19.8844 173.319 17.5C173.319 15.1156 173.774 12.8731 174.683 10.7725C175.593 8.64355 176.829 6.78427 178.392 5.19465C179.984 3.57664 181.831 2.31346 183.934 1.40511C186.065 0.46837 188.353 0 190.797 0C193.014 0 195.145 0.411597 197.191 1.23479C199.238 2.0296 201.128 3.19343 202.861 4.72628L196.04 10.6873C194.392 9.52352 192.659 8.94161 190.84 8.94161C189.646 8.94161 188.538 9.16869 187.515 9.62287C186.492 10.077 185.611 10.7015 184.872 11.4964C184.133 12.2912 183.55 13.2137 183.124 14.264C182.698 15.2859 182.484 16.3646 182.484 17.5C182.484 18.6638 182.698 19.7709 183.124 20.8212C183.55 21.8431 184.133 22.7514 184.872 23.5462C185.611 24.3126 186.477 24.9371 187.472 25.4197C188.495 25.8739 189.603 26.101 190.797 26.101C192.161 26.101 193.426 25.7887 194.591 25.1642C195.785 24.5397 196.822 23.6598 197.703 22.5243L204.737 28.2299C202.975 30.3873 200.886 32.062 198.47 33.2543C196.083 34.4181 193.525 35 190.797 35Z" fill="url(#paint6_linear_26_2938)"/>
<path d="M227.75 33.9781V21.5024H216.026V33.9781H206.861V0.936739H216.026V13.5401H227.75V0.936739H237V33.9781H227.75Z" fill="#0484EE"/>
<path d="M227.75 33.9781V21.5024H216.026V33.9781H206.861V0.936739H216.026V13.5401H227.75V0.936739H237V33.9781H227.75Z" fill="url(#paint7_linear_26_2938)"/>
<defs>
<linearGradient id="paint0_linear_26_2938" x1="3.49993e-07" y1="24" x2="237" y2="25.5" gradientUnits="userSpaceOnUse">
<stop stop-color="#0061B0"/>
<stop offset="0.416561" stop-color="#016DC6"/>
<stop offset="1" stop-color="#048BFA"/>
</linearGradient>
<linearGradient id="paint1_linear_26_2938" x1="3.49993e-07" y1="24" x2="237" y2="25.5" gradientUnits="userSpaceOnUse">
<stop stop-color="#0061B0"/>
<stop offset="0.416561" stop-color="#016DC6"/>
<stop offset="1" stop-color="#048BFA"/>
</linearGradient>
<linearGradient id="paint2_linear_26_2938" x1="3.49993e-07" y1="24" x2="237" y2="25.5" gradientUnits="userSpaceOnUse">
<stop stop-color="#0061B0"/>
<stop offset="0.416561" stop-color="#016DC6"/>
<stop offset="1" stop-color="#048BFA"/>
</linearGradient>
<linearGradient id="paint3_linear_26_2938" x1="3.49993e-07" y1="24" x2="237" y2="25.5" gradientUnits="userSpaceOnUse">
<stop stop-color="#0061B0"/>
<stop offset="0.416561" stop-color="#016DC6"/>
<stop offset="1" stop-color="#048BFA"/>
</linearGradient>
<linearGradient id="paint4_linear_26_2938" x1="3.49993e-07" y1="24" x2="237" y2="25.5" gradientUnits="userSpaceOnUse">
<stop stop-color="#0061B0"/>
<stop offset="0.416561" stop-color="#016DC6"/>
<stop offset="1" stop-color="#048BFA"/>
</linearGradient>
<linearGradient id="paint5_linear_26_2938" x1="3.49993e-07" y1="24" x2="237" y2="25.5" gradientUnits="userSpaceOnUse">
<stop stop-color="#0061B0"/>
<stop offset="0.416561" stop-color="#016DC6"/>
<stop offset="1" stop-color="#048BFA"/>
</linearGradient>
<linearGradient id="paint6_linear_26_2938" x1="3.49993e-07" y1="24" x2="237" y2="25.5" gradientUnits="userSpaceOnUse">
<stop stop-color="#0061B0"/>
<stop offset="0.416561" stop-color="#016DC6"/>
<stop offset="1" stop-color="#048BFA"/>
</linearGradient>
<linearGradient id="paint7_linear_26_2938" x1="3.49993e-07" y1="24" x2="237" y2="25.5" gradientUnits="userSpaceOnUse">
<stop stop-color="#0061B0"/>
<stop offset="0.416561" stop-color="#016DC6"/>
<stop offset="1" stop-color="#048BFA"/>
</linearGradient>
</defs>
</svg>
