<svg width="82" height="82" viewBox="0 0 82 82" fill="none" xmlns="http://www.w3.org/2000/svg">
<path d="M82 68.4778V58.4887L78.1737 57.511C78.1472 57.4464 78.1207 57.3818 78.093 57.3179L80.1072 53.923L73.0435 46.8593L69.6486 48.8735C69.5834 48.8458 69.5188 48.8193 69.4555 48.7928L68.4778 44.9678H58.4887L57.5109 48.7941C57.4464 48.8206 57.3818 48.847 57.3179 48.8748L53.9229 46.8606L46.8593 53.9243L48.8735 57.3192C48.8457 57.3844 48.8192 57.449 48.7928 57.5123L44.9677 58.49V68.4791L48.7941 69.4568C48.8205 69.5214 48.847 69.586 48.8748 69.6499L46.8606 73.0448L53.9242 80.1085L57.3191 78.0943C57.3844 78.1221 57.449 78.1485 57.5122 78.175L58.49 82H68.4791L69.4568 78.1737C69.5214 78.1472 69.586 78.1208 69.6499 78.093L73.0448 80.1072L80.1085 73.0436L78.0943 69.6486C78.122 69.5834 78.1485 69.5188 78.175 69.4555L82 68.4778ZM76.7852 72.627L72.627 76.7853L69.8004 75.1081L69.1643 75.4123C68.7542 75.6067 68.3351 75.7824 67.9037 75.9348L67.2372 76.1711L66.4255 79.3549H60.5436L59.7318 76.1711L59.0654 75.9348C58.634 75.7836 58.2136 75.608 57.8048 75.4123L57.1687 75.1081L54.342 76.7853L50.1838 72.627L51.8609 69.8004L51.5568 69.1643C51.3624 68.7542 51.1867 68.3351 51.0343 67.9037L50.7979 67.2372L47.6129 66.4255V60.5436L50.7967 59.7319L51.033 59.0654C51.1841 58.634 51.3598 58.2136 51.5555 57.8048L51.8596 57.1687L50.1825 54.3421L54.3408 50.1838L57.1674 51.8609L57.8035 51.5568C58.2136 51.3624 58.6327 51.1867 59.0641 51.0343L59.7305 50.798L60.5423 47.6129H66.4242L67.2359 50.7967L67.9024 51.033C68.3338 51.1842 68.7542 51.3598 69.163 51.5555L69.7991 51.8597L72.6257 50.1825L76.7839 54.3408L75.1068 57.1674L75.411 57.8035C75.6054 58.2136 75.781 58.6327 75.9334 59.0641L76.1698 59.7306L79.3548 60.5423V66.4242L76.1711 67.2359L75.9347 67.9024C75.7836 68.3338 75.608 68.7542 75.4123 69.163L75.1081 69.7991L76.7852 72.627Z" fill="black"/>
<path d="M63.4839 52.9033C57.6498 52.9033 52.9032 57.6499 52.9032 63.484C52.9032 69.318 57.6498 74.0646 63.4839 74.0646C69.318 74.0646 74.0645 69.318 74.0645 63.484C74.0645 57.6499 69.318 52.9033 63.4839 52.9033ZM63.4839 71.4194C59.1073 71.4194 55.5484 67.8605 55.5484 63.484C55.5484 59.1074 59.1073 55.5485 63.4839 55.5485C67.8604 55.5485 71.4194 59.1074 71.4194 63.484C71.4194 67.8605 67.8604 71.4194 63.4839 71.4194Z" fill="black"/>
<path d="M63.4839 58.1936C60.5662 58.1936 58.1935 60.5662 58.1935 63.4839C58.1935 66.4016 60.5662 68.7743 63.4839 68.7743C66.4016 68.7743 68.7742 66.4016 68.7742 63.4839C68.7742 60.5662 66.4016 58.1936 63.4839 58.1936ZM63.4839 66.1291C62.025 66.1291 60.8387 64.9428 60.8387 63.4839C60.8387 62.0251 62.025 60.8388 63.4839 60.8388C64.9427 60.8388 66.129 62.0251 66.129 63.4839C66.129 64.9428 64.9427 66.1291 63.4839 66.1291Z" fill="black"/>
<path d="M33.4946 22.3941C33.9376 23.6928 34.7087 24.8378 35.7097 25.7374V26.8591L29.421 29.2169C26.8539 30.1785 25.129 32.6667 25.129 35.4081V42.3226H56.871V35.4081C56.871 32.6667 55.1461 30.1785 52.5803 29.2156L46.2903 26.8578V25.7374C47.2913 24.8391 48.0624 23.6941 48.5054 22.3941C50.9975 21.9666 52.9032 19.8045 52.9032 17.1935V11.9032C52.9032 5.34069 47.5638 0 41 0C34.4362 0 29.0968 5.34069 29.0968 11.9032V17.1935C29.0968 19.8045 31.0025 21.9666 33.4946 22.3941ZM43.6452 27.408L41 31.8162L38.3548 27.408V27.3112C39.184 27.6063 40.0713 27.7742 41 27.7742C41.9286 27.7742 42.816 27.605 43.6452 27.3112V27.408ZM36.4646 29.3996L39.1311 33.842L36.482 35.1659L34.7707 30.0345L36.4646 29.3996ZM54.2258 35.4081V39.6774H27.7742V35.4081C27.7742 33.7626 28.8087 32.2708 30.349 31.6929L32.2934 30.9644L34.9373 38.8973L41 35.866L47.0627 38.8973L49.7066 30.9644L51.6523 31.6941C53.1912 32.2708 54.2258 33.7626 54.2258 35.4081ZM47.2293 30.0345L45.518 35.1672L42.8689 33.8433L45.5354 29.3996L47.2293 30.0345ZM41 25.129C38.0823 25.129 35.7097 22.7564 35.7097 19.8387V14.4586C37.6458 14.2546 39.4727 13.5487 41 12.3475C42.5273 13.55 44.3542 14.2546 46.2903 14.4586V19.8387C46.2903 22.7564 43.9177 25.129 41 25.129ZM48.9355 19.4713V14.9171C49.7227 15.3763 50.2581 16.2203 50.2581 17.1948C50.2581 18.1693 49.7227 19.0121 48.9355 19.4713ZM41 2.64516C46.1037 2.64516 50.2581 6.79824 50.2581 11.9032V12.6388C49.4767 12.1835 48.5809 11.9032 47.6129 11.9032H47.3856C45.3262 11.9032 43.3901 11.1018 41.9351 9.64554L41 8.70914L40.0649 9.64554C38.6086 11.1018 36.6738 11.9032 34.6144 11.9032H34.3871C33.4191 11.9032 32.5233 12.1835 31.7419 12.6388V11.9032C31.7419 6.79824 35.8963 2.64516 41 2.64516ZM33.0645 14.9158V19.47C32.2773 19.0108 31.7419 18.1668 31.7419 17.1923C31.7419 16.2178 32.2773 15.375 33.0645 14.9158Z" fill="black"/>
<path d="M0 81.9999H26.4516V47.6128H0V81.9999ZM2.64516 50.258H23.8064V79.3547H2.64516V50.258Z" fill="black"/>
<path d="M5.29033 52.9033H21.1613V55.5485H5.29033V52.9033Z" fill="black"/>
<path d="M5.29033 58.1936H7.93549V60.8388H5.29033V58.1936Z" fill="black"/>
<path d="M10.5806 58.1936H21.1613V60.8388H10.5806V58.1936Z" fill="black"/>
<path d="M5.29033 63.4839H21.1613V66.1291H5.29033V63.4839Z" fill="black"/>
<path d="M5.29033 68.7742H21.1613V71.4193H5.29033V68.7742Z" fill="black"/>
<path d="M18.5161 74.0645H21.1613V76.7096H18.5161V74.0645Z" fill="black"/>
<path d="M5.29033 74.0645H15.871V76.7096H5.29033V74.0645Z" fill="black"/>
<path d="M35.3222 59.1288L33.452 57.2585L27.2266 63.484L33.452 69.7094L35.3222 67.8392L32.2896 64.8066H42.3226V62.1614H32.2896L35.3222 59.1288Z" fill="black"/>
<path d="M14.5484 21.1614C14.5484 20.4329 15.1412 19.8388 15.871 19.8388H21.9362L18.9036 22.8714L20.7738 24.7416L26.9992 18.5162L20.7738 12.2908L18.9036 14.161L21.9362 17.1936H15.871C13.6837 17.1936 11.9032 18.9741 11.9032 21.1614V44.9678H14.5484V21.1614Z" fill="black"/>
<path d="M63.4839 21.1613V37.8073L60.4512 34.7746L58.581 36.6448L64.8065 42.8703L71.0319 36.6448L69.1617 34.7746L66.129 37.8073V21.1613C66.129 18.9741 64.3486 17.1936 62.1613 17.1936H55.5484V19.8388H62.1613C62.891 19.8388 63.4839 20.4329 63.4839 21.1613Z" fill="black"/>
</svg>
