<svg width="82" height="82" viewBox="0 0 82 82" fill="none" xmlns="http://www.w3.org/2000/svg">
<g clip-path="url(#clip0_31_1495)">
<path d="M32.538 43.4462V49.0198C32.538 50.1415 33.4507 51.0543 34.5725 51.0543H47.6371C48.7588 51.0543 49.6716 50.1415 49.6716 49.0198V43.4462C49.6716 40.7855 47.9374 38.5239 45.5407 37.7275C46.3339 36.7478 46.81 35.5016 46.81 34.1459C46.81 31.0003 44.2506 28.4409 41.1051 28.4409C37.9589 28.4409 35.3995 31.0003 35.3995 34.1459C35.3995 35.5016 35.8756 36.7478 36.6689 37.7275C34.2722 38.5239 32.538 40.7861 32.538 43.4462ZM41.1045 30.8714C42.9106 30.8714 44.3795 32.3404 44.3795 34.1459C44.3795 35.9439 42.9193 37.4209 41.1019 37.4209C39.2977 37.4191 37.83 35.9508 37.83 34.1459C37.83 32.3404 39.2989 30.8714 41.1045 30.8714ZM34.9678 43.4462C34.9678 41.4636 36.5813 39.8508 38.5638 39.8508H43.6457C45.6282 39.8508 47.2411 41.4636 47.2411 43.4462V48.6238H45.973V43.2742C45.973 42.6029 45.4287 42.0586 44.7574 42.0586C44.0861 42.0586 43.5425 42.6029 43.5425 43.2742V48.6238H38.6664V43.2742C38.6664 42.6029 38.1228 42.0586 37.4515 42.0586C36.7802 42.0586 36.2366 42.6029 36.2366 43.2742V48.6238H34.9678V43.4462Z" fill="black"/>
<path d="M32.538 14.059V17.8239C32.538 18.9456 33.4507 19.8584 34.5725 19.8584H47.6371C48.7588 19.8584 49.6716 18.9456 49.6716 17.8239V14.059C49.6716 11.3989 47.9374 9.13664 45.5407 8.34024C46.3333 7.36054 46.81 6.11432 46.81 4.75862C46.81 2.98751 46.0067 1.34591 44.6066 0.256097C44.0767 -0.156181 43.3135 -0.0617132 42.9012 0.468179C42.4889 0.998072 42.584 1.76132 43.1133 2.17359C43.9184 2.79983 44.3795 3.74263 44.3795 4.75862C44.3795 6.56163 42.9143 8.03369 41.1032 8.03369C39.2983 8.03307 37.83 6.56413 37.83 4.75862C37.83 3.80081 38.2485 2.89367 38.9793 2.26931C39.4891 1.83326 39.5492 1.06626 39.1131 0.555765C38.6771 0.0458917 37.9101 -0.0141669 37.3996 0.421884C36.129 1.50857 35.3995 3.08949 35.3995 4.75862C35.3995 6.11432 35.8756 7.36054 36.6689 8.34087C34.2722 9.13664 32.538 11.3989 32.538 14.059ZM34.9678 14.059C34.9678 12.0764 36.5813 10.4636 38.5638 10.4636C38.6446 10.4636 41.1839 10.4636 41.1045 10.4636H43.6457C45.6282 10.4636 47.2411 12.0764 47.2411 14.059V17.4279H45.973V13.8863C45.973 13.2156 45.4293 12.6713 44.758 12.6713C44.0867 12.6713 43.5425 13.2156 43.5425 13.8863V17.4279H38.6664V13.8863C38.6664 13.2156 38.1228 12.6713 37.4515 12.6713C36.7802 12.6713 36.2366 13.2156 36.2366 13.8863V17.4279H34.9678V14.059Z" fill="black"/>
<path d="M59.6307 30.162V33.9263C59.6307 35.048 60.5435 35.9608 61.6652 35.9608H74.7298C75.8515 35.9608 76.7643 35.048 76.7643 33.9263V30.162C76.7643 27.5013 75.0307 25.2397 72.634 24.4433C73.4267 23.463 73.9028 22.2174 73.9028 20.8617C73.9028 17.7155 71.3434 15.1567 68.1978 15.1567C65.0522 15.1567 62.4929 17.7161 62.4929 20.8617C62.4929 22.2174 62.969 23.463 63.7616 24.4433C61.3649 25.2397 59.6307 27.5013 59.6307 30.162ZM68.1978 17.5866C70.0033 17.5866 71.4723 19.0555 71.4723 20.8617C71.4723 22.6672 70.0033 24.1361 68.1978 24.1361C66.3917 24.1361 64.9227 22.6672 64.9227 20.8617C64.9227 19.0555 66.3917 17.5866 68.1978 17.5866ZM62.0612 30.162C62.0612 28.1795 63.674 26.5666 65.6566 26.5666H70.7384C72.721 26.5666 74.3338 28.1795 74.3338 30.162V33.5309H73.0657V29.9894C73.0657 29.3187 72.522 28.7744 71.8507 28.7744C71.1795 28.7744 70.6352 29.3187 70.6352 29.9894V33.5309H65.7592V29.9894C65.7592 29.3187 65.2155 28.7744 64.5442 28.7744C63.873 28.7744 63.3293 29.3187 63.3293 29.9894V33.5309H62.0606V30.162H62.0612Z" fill="black"/>
<path d="M5.4453 30.162V33.9263C5.4453 35.048 6.35806 35.9608 7.47978 35.9608H20.5444C21.6661 35.9608 22.5789 35.048 22.5789 33.9263V30.162C22.5789 27.5013 20.8447 25.2397 18.448 24.4433C19.2406 23.463 19.7174 22.2174 19.7174 20.8617C19.7174 17.7155 17.158 15.1567 14.0124 15.1567C10.8662 15.1567 8.30684 17.7161 8.30684 20.8617C8.30684 22.2174 8.78293 23.4636 9.5762 24.4433C7.17886 25.2397 5.4453 27.5013 5.4453 30.162ZM14.0118 17.5866C15.8179 17.5866 17.2869 19.0555 17.2869 20.8617C17.2869 22.6672 15.8179 24.1361 14.0118 24.1361C12.2063 24.1361 10.7373 22.6672 10.7373 20.8617C10.7373 19.0555 12.2063 17.5866 14.0118 17.5866ZM7.87517 30.162C7.87517 28.1795 9.48862 26.5666 11.4712 26.5666H16.553C18.5356 26.5666 20.1484 28.1795 20.1484 30.162V33.5309H18.8803V29.9894C18.8803 29.3187 18.336 28.7744 17.6647 28.7744C16.9934 28.7744 16.4498 29.3187 16.4498 29.9894V33.5309H11.5738V29.9894C11.5738 29.3187 11.0301 28.7744 10.3588 28.7744C9.68756 28.7744 9.14391 29.3187 9.14391 29.9894V33.5309H7.87517V30.162Z" fill="black"/>
<path d="M59.6307 62.1976C59.6307 63.3199 60.5435 64.2327 61.6652 64.2327H74.7298C75.8515 64.2327 76.7643 63.3199 76.7643 62.1976V58.4333C76.7643 55.7725 75.0307 53.511 72.634 52.7146C73.4267 51.7342 73.9028 50.4886 73.9028 49.1329C73.9028 45.9874 71.3434 43.428 68.1978 43.428C65.0522 43.428 62.4929 45.9874 62.4929 49.1329C62.4929 50.4886 62.969 51.7342 63.7616 52.7146C61.3649 53.511 59.6307 55.7725 59.6307 58.4333V62.1976ZM68.1978 45.8579C70.0033 45.8579 71.4723 47.3268 71.4723 49.1329C71.4723 50.9384 70.0033 52.4074 68.1978 52.4074C66.3917 52.4074 64.9227 50.9384 64.9227 49.1329C64.9227 47.3268 66.3917 45.8579 68.1978 45.8579ZM62.0612 58.4333C62.0612 56.4507 63.674 54.8379 65.6566 54.8379H70.7384C72.721 54.8379 74.3338 56.4507 74.3338 58.4333V61.8022H73.0657V58.2606C73.0657 57.5893 72.522 57.0457 71.8507 57.0457C71.1795 57.0457 70.6352 57.5893 70.6352 58.2606V61.8022H65.7592V58.2606C65.7592 57.5893 65.2155 57.0457 64.5442 57.0457C63.873 57.0457 63.3293 57.5893 63.3293 58.2606V61.8022H62.0606V58.4333H62.0612Z" fill="black"/>
<path d="M5.4453 62.1976C5.4453 63.3199 6.35806 64.2327 7.47978 64.2327H20.5444C21.6661 64.2327 22.5789 63.3199 22.5789 62.1976V58.4333C22.5789 55.7725 20.8447 53.511 18.448 52.7146C19.2406 51.7342 19.7174 50.4886 19.7174 49.1329C19.7174 45.9874 17.158 43.428 14.0124 43.428C10.8662 43.428 8.30684 45.9874 8.30684 49.1329C8.30684 50.4886 8.78293 51.7342 9.5762 52.7146C7.17949 53.511 5.4453 55.7725 5.4453 58.4333V62.1976ZM14.0118 45.8579C15.8179 45.8579 17.2869 47.3268 17.2869 49.1329C17.2869 50.9384 15.8179 52.4074 14.0118 52.4074C12.2063 52.4074 10.7373 50.9384 10.7373 49.1329C10.7373 47.3268 12.2063 45.8579 14.0118 45.8579ZM7.87517 58.4333C7.87517 56.4507 9.48862 54.8379 11.4712 54.8379H16.553C18.5356 54.8379 20.1484 56.4507 20.1484 58.4333V61.8022H18.8803V58.2606C18.8803 57.5893 18.336 57.0457 17.6647 57.0457C16.9934 57.0457 16.4498 57.5893 16.4498 58.2606V61.8022H11.5738V58.2606C11.5738 57.5893 11.0301 57.0457 10.3588 57.0457C9.68756 57.0457 9.14391 57.5893 9.14391 58.2606V61.8022H7.87517V58.4333Z" fill="black"/>
<path d="M23.7538 50.5444C24.0898 51.1262 24.833 51.3246 25.4136 50.9892L27.6113 49.7205C30.3402 53.7131 34.7933 56.4389 39.8896 56.8149V59.3474C39.8896 60.0187 40.4339 60.5623 41.1045 60.5623C41.7758 60.5623 42.3201 60.0187 42.3201 59.3474V56.8118C47.3681 56.4377 51.8538 53.7507 54.6033 49.7236L56.7961 50.9892C57.3767 51.3246 58.1199 51.1262 58.4558 50.5444C58.7912 49.9632 58.5922 49.2206 58.011 48.8847L55.822 47.6209C56.4276 46.3635 56.8799 45.0128 57.1502 43.5889C57.2753 42.9295 56.8424 42.2939 56.183 42.1687C55.5236 42.0436 54.888 42.4765 54.7629 43.1359C53.5348 49.6079 47.8392 54.4301 41.1045 54.4301C33.4383 54.4301 27.2016 48.1934 27.2016 40.5271C27.2016 32.8609 33.4383 26.6236 41.1045 26.6236C46.1695 26.6236 50.697 29.3625 53.1288 33.5434C53.1344 33.5541 53.1394 33.5647 53.1457 33.5753C53.1494 33.5816 53.1538 33.5872 53.1575 33.5935C53.9145 34.9079 54.4676 36.3612 54.7629 37.9183C54.888 38.5777 55.5236 39.0113 56.183 38.8855C56.8424 38.761 57.2753 38.1248 57.1502 37.4654C56.8806 36.0415 56.4276 34.6908 55.822 33.4333L58.011 32.1696C58.5922 31.8336 58.7912 31.0904 58.4558 30.5099C58.1205 29.928 57.3767 29.7297 56.7961 30.065L54.6033 31.3307C51.8538 27.3036 47.3681 24.6166 42.3201 24.2425V21.7069C42.3201 21.0362 41.7764 20.4919 41.1051 20.4919C40.4339 20.4919 39.8896 21.0362 39.8896 21.7069V24.2387C34.7933 24.6153 30.3409 27.3411 27.6113 31.3338L25.4136 30.065C24.8324 29.7297 24.0891 29.928 23.7538 30.5099C23.4185 31.0904 23.6174 31.8336 24.1986 32.1696L26.3926 33.4365C24.2337 37.8971 24.2261 43.1416 26.3926 47.6184L24.1986 48.8853C23.6174 49.2206 23.4179 49.9639 23.7538 50.5444Z" fill="black"/>
<path d="M32.538 76.2012V79.9649C32.538 81.0872 33.4507 82 34.5725 82H47.6371C48.7588 82 49.6716 81.0872 49.6716 79.9649V76.2012C49.6716 73.5405 47.9374 71.2783 45.5407 70.4819C46.3333 69.5022 46.81 68.256 46.81 66.9003C46.81 63.7547 44.2506 61.1953 41.1051 61.1953C37.9589 61.1953 35.3995 63.7547 35.3995 66.9003C35.3995 68.256 35.8756 69.5022 36.6689 70.4819C34.2722 71.2783 32.538 73.5405 32.538 76.2012ZM41.1045 63.6252C42.9106 63.6252 44.3795 65.0947 44.3795 66.9003C44.3795 68.7064 42.9106 70.1753 41.1045 70.1753C39.2989 70.1753 37.83 68.7064 37.83 66.9003C37.83 65.0947 39.2989 63.6252 41.1045 63.6252ZM34.9678 76.2012C34.9678 74.2186 36.5813 72.6052 38.5638 72.6052H43.6457C45.6282 72.6052 47.2411 74.2186 47.2411 76.2012V79.5695H45.973V76.0285C45.973 75.3573 45.4287 74.813 44.7574 74.813C44.0861 74.813 43.5425 75.3573 43.5425 76.0285V79.5695H38.6664V76.0285C38.6664 75.3573 38.1228 74.813 37.4515 74.813C36.7802 74.813 36.2366 75.3573 36.2366 76.0285V79.5695H34.9678V76.2012Z" fill="black"/>
</g>
<defs>
<clipPath id="clip0_31_1495">
<rect width="82" height="82" fill="white"/>
</clipPath>
</defs>
</svg>
