<svg width="414" height="722" viewBox="0 0 414 722" fill="none" xmlns="http://www.w3.org/2000/svg">
<path d="M-196.92 508.217C-163.077 675.931 -78.7104 641.134 -24.0257 539.275C30.0863 438.483 83.4418 427.781 117.526 460.871C142.072 484.7 205.185 693.999 289.857 718.112C365.811 739.74 439.066 647.833 422.748 521.15C393.499 294.029 496.785 77.0037 610.068 132.469C673.23 163.395 716.754 102.355 716.754 102.355C833.72 -50.4307 749.363 -494.378 610.874 -394.576C541.484 -344.57 180.343 -330.42 101.719 -354.953C17.9265 -319.47 31.1635 -121.277 -19.9793 -84.4217C-158.469 15.3781 -231.791 335.408 -196.92 508.217Z" fill="#0578BD"/>
<path d="M-196.92 508.217C-163.077 675.931 -78.7104 641.134 -24.0257 539.275C30.0863 438.483 83.4418 427.781 117.526 460.871C142.072 484.7 205.185 693.999 289.857 718.112C365.811 739.74 439.066 647.833 422.748 521.15C393.499 294.029 496.785 77.0037 610.068 132.469C673.23 163.395 716.754 102.355 716.754 102.355C833.72 -50.4307 749.363 -494.378 610.874 -394.576C541.484 -344.57 180.343 -330.42 101.719 -354.953C17.9265 -319.47 31.1635 -121.277 -19.9793 -84.4217C-158.469 15.3781 -231.791 335.408 -196.92 508.217Z" fill="url(#paint0_linear_71_17)"/>
<defs>
<linearGradient id="paint0_linear_71_17" x1="93.9896" y1="-354.411" x2="758.574" y2="310.352" gradientUnits="userSpaceOnUse">
<stop stop-color="#0061B0"/>
<stop offset="0.447917" stop-color="#016DC6"/>
<stop offset="1" stop-color="#048BFA"/>
</linearGradient>
</defs>
</svg>
