<svg width="82" height="82" viewBox="0 0 82 82" fill="none" xmlns="http://www.w3.org/2000/svg">
<path d="M82 42.3226C82 33.4758 75.7601 26.0681 67.4516 24.2456V6.6129C67.4516 2.96655 64.4851 0 60.8387 0H26.4516C22.8053 0 19.8387 2.96655 19.8387 6.6129V21.1613H12.1929L11.3954 24.3566L8.57297 22.6624L1.49981 29.7316L3.19403 32.5566L0 33.3542V43.3555L3.19535 44.153L1.49981 46.9781L8.57165 54.0486L11.394 52.3544L12.1929 55.5484H19.8387V75.3871C19.8387 79.0335 22.8053 82 26.4516 82H60.8387C64.4851 82 67.4516 79.0335 67.4516 75.3871V60.3996C75.7601 58.5771 82 51.1693 82 42.3226ZM79.3548 42.3226C79.3548 44.9003 78.724 47.3286 77.6289 49.483C76.8948 47.4635 75.2059 45.875 73.0237 45.3288L67.4516 43.9348V43.6187C69.0995 42.3768 70.0968 40.4234 70.0968 38.3562V35.711C70.0968 33.8634 69.3151 32.0858 67.9515 30.8346C66.5893 29.5875 64.743 28.9606 62.8966 29.1232C59.5175 29.4155 56.871 32.431 56.871 35.9835V38.3548C56.871 40.422 57.8682 42.3755 59.5161 43.6174V43.9335L53.9441 45.3275C51.7618 45.8737 50.0729 47.4621 49.3389 49.4817C48.2438 47.3285 47.6129 44.9003 47.6129 42.3226C47.6129 33.5711 54.7324 26.4516 63.4839 26.4516C72.2354 26.4516 79.3548 33.5711 79.3548 42.3226ZM59.5161 24.2456C58.6062 24.4453 57.7254 24.7204 56.871 25.0484V21.1613H30.4194V39.6774H45.1794C45.0537 40.5437 44.9677 41.4219 44.9677 42.3226C44.9677 51.1693 51.2077 58.5771 59.5161 60.3996V63.4839H27.7742V18.5161H59.5161V24.2456ZM45.7481 37.0323H33.0645V23.8065H54.2258V26.3114C50.1866 28.6564 47.1103 32.4733 45.7481 37.0323ZM26.4516 2.64516H60.8387C63.0263 2.64516 64.8065 4.42535 64.8065 6.6129V10.5806H22.4839V6.6129C22.4839 4.42535 24.2641 2.64516 26.4516 2.64516ZM19.8387 44.4017C19.0042 44.7694 18.1035 44.9677 17.1935 44.9677C13.5472 44.9677 10.5806 42.0012 10.5806 38.3548C10.5806 34.7085 13.5472 31.7419 17.1935 31.7419C18.1035 31.7419 19.0042 31.9403 19.8387 32.308V44.4017ZM14.2587 52.9032L13.6146 50.3255L13.3462 49.6179L11.8358 49.0043L8.98165 50.7183L4.83139 46.5667L6.54545 43.7113L5.88416 42.0977L2.64516 41.2896V35.42L5.88019 34.6119L6.54545 32.9984L4.83139 30.1429L8.98165 25.9914L11.8358 27.7054L13.4493 27.0494L14.2587 23.8065H19.8387V29.5002C18.9804 29.2423 18.0916 29.0968 17.1935 29.0968C12.0884 29.0968 7.93548 33.251 7.93548 38.3548C7.93548 43.4587 12.0884 47.6129 17.1935 47.6129C18.0916 47.6129 18.9804 47.4674 19.8387 47.2095V52.9032H14.2587ZM60.8387 79.3548H26.4516C24.2641 79.3548 22.4839 77.5746 22.4839 75.3871V71.4194H64.8065V75.3871C64.8065 77.5746 63.0263 79.3548 60.8387 79.3548ZM64.8065 68.7742H22.4839V13.2258H64.8065V23.8739C64.3674 23.8422 63.9309 23.8065 63.4839 23.8065C63.0368 23.8065 62.6004 23.8422 62.1613 23.8739V15.871H25.129V66.129H62.1613V60.7713C62.6004 60.803 63.0368 60.8387 63.4839 60.8387C63.9309 60.8387 64.3674 60.803 64.8065 60.7713V68.7742ZM63.4839 58.1936C58.7424 58.1936 54.4916 56.092 51.5806 52.7855V51.7433C51.5806 49.9195 52.8173 48.3364 54.5855 47.8933L62.1613 46.0007V42.1506L61.504 41.7684C60.2594 41.0436 59.5161 39.7674 59.5161 38.3548V35.9835C59.5161 33.7893 61.1019 31.9337 63.1255 31.7578C64.2602 31.6665 65.3355 32.0236 66.1647 32.7841C66.9821 33.534 67.4516 34.6 67.4516 35.7097V38.3548C67.4516 39.7674 66.7083 41.0436 65.4638 41.7684L64.8065 42.1506V46.0007L72.3822 47.8933C74.1505 48.3364 75.3871 49.9195 75.3871 51.7433V52.7855C72.4761 56.092 68.2253 58.1936 63.4839 58.1936Z" fill="black"/>
<path d="M48.5526 5.39478H51.7895V7.55267H48.5526V5.39478Z" fill="black"/>
<path d="M35.6053 5.39478H46.3947V7.55267H35.6053V5.39478Z" fill="black"/>
<path d="M38.8421 74.4473H48.5526V76.6052H38.8421V74.4473Z" fill="black"/>
<path d="M57.1842 74.4473H59.3421V76.6052H57.1842V74.4473Z" fill="black"/>
<path d="M28.0526 74.4473H30.2105V76.6052H28.0526V74.4473Z" fill="black"/>
<path d="M30.2105 42.0789H42.0789V45.3157H30.2105V42.0789Z" fill="black"/>
<path d="M30.2105 47.4736H42.0789V50.7105H30.2105V47.4736Z" fill="black"/>
<path d="M30.2105 52.8684H42.0789V55.0263H30.2105V52.8684Z" fill="black"/>
<path d="M30.2105 58.2632H42.0789V60.4211H30.2105V58.2632Z" fill="black"/>
<path d="M73.9079 23.7369C75.9899 23.7369 77.6842 21.9734 77.6842 19.8064C77.6842 18.1006 76.6281 16.6594 75.1667 16.117V5.39478H72.6491V16.117C71.1877 16.6594 70.1316 18.1006 70.1316 19.8064C70.1316 21.9734 71.8259 23.7369 73.9079 23.7369ZM73.9079 18.4963C74.6015 18.4963 75.1667 19.0832 75.1667 19.8064C75.1667 20.5296 74.6015 21.1166 73.9079 21.1166C73.2143 21.1166 72.6491 20.5296 72.6491 19.8064C72.6491 19.0832 73.2143 18.4963 73.9079 18.4963Z" fill="black"/>
<path d="M72.2895 0H75.5263V2.15789H72.2895V0Z" fill="black"/>
<path d="M13.4868 58.2632C11.4048 58.2632 9.71053 60.0266 9.71053 62.1936C9.71053 63.8995 10.7666 65.3406 12.2281 65.883V76.6053H14.7456V65.883C16.207 65.3406 17.2632 63.8995 17.2632 62.1936C17.2632 60.0266 15.5689 58.2632 13.4868 58.2632ZM13.4868 63.5038C12.7933 63.5038 12.2281 62.9168 12.2281 62.1936C12.2281 61.4704 12.7933 60.8835 13.4868 60.8835C14.1804 60.8835 14.7456 61.4704 14.7456 62.1936C14.7456 62.9168 14.1804 63.5038 13.4868 63.5038Z" fill="black"/>
<path d="M11.8684 79.842H14.0263V81.9999H11.8684V79.842Z" fill="black"/>
</svg>
