<svg width="82" height="82" viewBox="0 0 82 82" fill="none" xmlns="http://www.w3.org/2000/svg">
<path d="M65.624 47.6129H16.376L11.0856 58.1935H15.871V82H66.129V58.1935H70.9143L65.624 47.6129ZM63.9889 50.2581L66.634 55.5484H45.7853L43.1401 50.2581H63.9889ZM18.0111 50.2581H38.8598L36.2147 55.5484H15.366L18.0111 50.2581ZM63.4839 79.3548H42.3226V70.0968H39.6774V79.3548H18.5161V58.1935H37.8498L39.6774 54.5377V66.129H42.3226V54.5377L44.1502 58.1935H63.4839V79.3548Z" fill="black"/>
<path d="M21.1613 68.7742H29.0968V71.4194H21.1613V68.7742Z" fill="black"/>
<path d="M21.1613 74.0645H29.0968V76.7097H21.1613V74.0645Z" fill="black"/>
<path d="M31.7419 74.0645H34.3871V76.7097H31.7419V74.0645Z" fill="black"/>
<path d="M34.8921 21.5107L41 19.9537L47.1079 21.5094L47.5864 14.9507L50.8309 9.40854L45.0924 6.92483L41 1.86505L36.9063 6.92483L31.1678 9.40854L34.4123 14.9507L34.8921 21.5107ZM38.5544 9.09275L41 6.07044L43.4456 9.09404L47.0401 10.651L44.9942 14.1461L44.7004 18.1681L41 17.2252L37.2996 18.1668L37.0058 14.1448L34.9599 10.6491L38.5544 9.09275Z" fill="black"/>
<path d="M14.5219 24.2101L16.4438 20.9288L13.0392 19.4538L10.5806 16.4134L8.12211 19.4525L4.7175 20.9275L6.63937 24.2088L6.92352 28.1223L10.5806 27.1923L14.239 28.1236L14.5219 24.2101ZM11.9297 23.4028L11.829 24.7797L10.5806 24.4626L9.33362 24.7797L9.23158 23.4028L8.50829 22.1661L9.76888 21.6205L10.5806 20.6188L11.3911 21.6217L12.6517 22.1681L11.9297 23.4028Z" fill="black"/>
<path d="M75.3606 24.2101L77.2825 20.9288L73.8779 19.4538L71.4194 16.4134L68.9608 19.4525L65.5562 20.9275L67.4781 24.2088L67.7622 28.1223L71.4194 27.1923L75.0778 28.1236L75.3606 24.2101ZM72.7684 23.4028L72.6677 24.7797L71.4194 24.4626L70.1723 24.7797L70.0716 23.4028L69.3483 22.1661L70.6089 21.6205L71.4194 20.6188L72.2298 21.6217L73.4904 22.1681L72.7684 23.4028Z" fill="black"/>
<path d="M16.4593 31.5198C18.9779 33.1995 21.2155 35.2492 23.1058 37.6141L28.3444 44.1599L27.2608 35.494C26.6951 30.9696 24.2785 26.8049 20.6311 24.0699L19.3641 23.12L15.4874 30.8714L16.4593 31.5198ZM20.2714 27.2214C22.5078 29.3377 24.0247 32.1546 24.5446 35.2021C22.8739 33.2402 20.9785 31.492 18.8894 29.9854L20.2714 27.2214Z" fill="black"/>
<path d="M54.7392 35.494L53.6556 44.1599L58.8942 37.6128C60.7858 35.2479 63.0221 33.1982 65.5407 31.5185L66.5113 30.8701L62.6347 23.1187L61.3676 24.0712C57.7215 26.8062 55.3036 30.9696 54.7392 35.494ZM63.1106 29.9854C61.0215 31.492 59.1248 33.2389 57.4554 35.2021C57.9766 32.1546 59.4922 29.3377 61.7286 27.2214L63.1106 29.9854Z" fill="black"/>
<path d="M46.2903 44.9677H48.9355V39.4262C48.9355 33.0736 51.1744 26.8895 55.2429 22.0079L53.21 20.3147C48.7476 25.6702 46.2903 32.4575 46.2903 39.4262V44.9677Z" fill="black"/>
<path d="M55.5484 15.871H58.1936V18.5161H55.5484V15.871Z" fill="black"/>
<path d="M59.5161 10.5806H62.1613V13.2258H59.5161V10.5806Z" fill="black"/>
<path d="M33.0645 44.9677H35.7097V39.4262C35.7097 32.4562 33.2524 25.6702 28.7913 20.3147L26.7584 22.0079C30.8256 26.8895 33.0645 33.0736 33.0645 39.4262V44.9677Z" fill="black"/>
<path d="M23.8065 15.871H26.4516V18.5161H23.8065V15.871Z" fill="black"/>
<path d="M19.8387 10.5806H22.4839V13.2258H19.8387V10.5806Z" fill="black"/>
<path d="M39.6774 22.4839H42.3226V25.129H39.6774V22.4839Z" fill="black"/>
<path d="M39.6774 27.7742H42.3226V44.9677H39.6774V27.7742Z" fill="black"/>
<path d="M76.7097 35.7097H79.3548V38.3548H76.7097V35.7097Z" fill="black"/>
<path d="M76.7097 41H79.3548V43.6452H76.7097V41Z" fill="black"/>
<path d="M79.3548 38.3548H82V41H79.3548V38.3548Z" fill="black"/>
<path d="M74.0645 38.3548H76.7097V41H74.0645V38.3548Z" fill="black"/>
<path d="M72.7419 0H75.3871V2.64516H72.7419V0Z" fill="black"/>
<path d="M72.7419 5.29033H75.3871V7.93549H72.7419V5.29033Z" fill="black"/>
<path d="M75.3871 2.64516H78.0322V5.29032H75.3871V2.64516Z" fill="black"/>
<path d="M70.0968 2.64516H72.7419V5.29032H70.0968V2.64516Z" fill="black"/>
<path d="M2.64516 41H5.29032V43.6452H2.64516V41Z" fill="black"/>
<path d="M2.64516 46.2903H5.29032V48.9355H2.64516V46.2903Z" fill="black"/>
<path d="M5.29033 43.6452H7.93549V46.2903H5.29033V43.6452Z" fill="black"/>
<path d="M0 43.6452H2.64516V46.2903H0V43.6452Z" fill="black"/>
<path d="M2.64516 0H5.29032V2.64516H2.64516V0Z" fill="black"/>
<path d="M2.64516 5.29033H5.29032V7.93549H2.64516V5.29033Z" fill="black"/>
<path d="M5.29033 2.64516H7.93549V5.29032H5.29033V2.64516Z" fill="black"/>
<path d="M0 2.64516H2.64516V5.29032H0V2.64516Z" fill="black"/>
</svg>
