<svg width="82" height="82" viewBox="0 0 82 82" fill="none" xmlns="http://www.w3.org/2000/svg">
<path d="M1.59781e-06 54.6667C-0.000842819 55.9009 0.333024 57.1123 0.966078 58.1719C1.59913 59.2316 2.50769 60.0998 3.59508 60.6843C4.68246 61.2687 5.908 61.5476 7.14129 61.4911C8.37458 61.4346 9.56947 61.0449 10.5988 60.3634L21.6347 71.3963C21.0798 72.2365 20.7176 73.189 20.5739 74.1856C20.4303 75.1821 20.5089 76.1981 20.8039 77.1608C21.099 78.1234 21.6033 79.009 22.2808 79.754C22.9582 80.499 23.792 81.0851 24.7225 81.4703C25.653 81.8555 26.6572 82.0302 27.6631 81.9821C28.6691 81.9339 29.652 81.664 30.5414 81.1917C31.4308 80.7193 32.2048 80.0563 32.8079 79.2499C33.411 78.4436 33.8283 77.5139 34.03 76.5274H47.9717C48.1722 77.5151 48.5889 78.4462 49.1917 79.2539C49.7946 80.0617 50.5688 80.7261 51.4587 81.1994C52.3487 81.6728 53.3324 81.9435 54.3393 81.9921C55.3462 82.0406 56.3514 81.8658 57.2828 81.4803C58.2142 81.0947 59.0487 80.5079 59.7265 79.7619C60.4043 79.0159 60.9087 78.1293 61.2033 77.1655C61.498 76.2017 61.5757 75.1846 61.431 74.1873C61.2862 73.1899 60.9224 72.2369 60.3658 71.3967L66.3108 65.4532L64.378 63.521L58.433 69.4644C57.5008 68.8471 56.4313 68.4681 55.3184 68.3607C54.2055 68.2534 53.0832 68.4208 52.0501 68.8484C51.0171 69.276 50.1048 69.9507 49.3936 70.8131C48.6823 71.6756 48.1938 72.6995 47.9708 73.7948H34.03C33.6636 72.0161 32.6055 70.4557 31.0884 69.4568L31.8831 67.4706L29.3452 66.4558L28.5514 68.4401C26.8204 68.1242 25.0343 68.4915 23.5687 69.4649L12.5328 58.432C13.5065 56.9667 13.8739 55.1811 13.5578 53.4507L23.7428 49.3779L22.7277 46.8407L12.5392 50.9136C11.54 49.3969 9.97922 48.339 8.2 47.9726V34.0355C9.97922 33.6692 11.54 32.6113 12.5392 31.0946L22.726 35.1684L23.7411 32.6312L13.556 28.5575C13.872 26.827 13.5046 25.0414 12.531 23.5762L21.0385 15.071L19.1065 13.1385L10.599 21.6437C9.75855 21.0889 8.80579 20.7267 7.80892 20.583C6.81206 20.4394 5.79576 20.5179 4.83278 20.8128C3.8698 21.1078 2.98397 21.612 2.2387 22.2893C1.49342 22.9665 0.90715 23.8002 0.521846 24.7305C0.136543 25.6608 -0.0382594 26.6647 0.00995499 27.6705C0.0581694 28.6762 0.328207 29.6588 0.800736 30.548C1.27327 31.4372 1.9366 32.211 2.74324 32.8139C3.54988 33.4168 4.47989 33.834 5.46667 34.0355V47.9735C3.92449 48.2904 2.53875 49.1292 1.54297 50.3484C0.547188 51.5676 0.00225418 53.0927 1.59781e-06 54.6667ZM54.6667 71.0622C55.4776 71.0622 56.2703 71.3026 56.9445 71.753C57.6187 72.2034 58.1442 72.8436 58.4546 73.5926C58.7649 74.3415 58.8461 75.1657 58.6879 75.9608C58.5297 76.7559 58.1392 77.4863 57.5658 78.0595C56.9924 78.6327 56.2619 79.0231 55.4665 79.1813C54.6712 79.3394 53.8468 79.2583 53.0977 78.948C52.3485 78.6378 51.7082 78.1124 51.2576 77.4384C50.8071 76.7643 50.5667 75.9718 50.5667 75.1611C50.5679 74.0744 51.0003 73.0326 51.7689 72.2642C52.5375 71.4958 53.5797 71.0635 54.6667 71.0622V71.0622ZM27.3333 71.0622C28.1442 71.0622 28.9369 71.3026 29.6112 71.753C30.2854 72.2034 30.8109 72.8436 31.1212 73.5926C31.4316 74.3415 31.5128 75.1657 31.3546 75.9608C31.1964 76.7559 30.8059 77.4863 30.2325 78.0595C29.6591 78.6327 28.9285 79.0231 28.1332 79.1813C27.3379 79.3394 26.5135 79.2583 25.7643 78.948C25.0152 78.6378 24.3748 78.1124 23.9243 77.4384C23.4738 76.7643 23.2333 75.9718 23.2333 75.1611C23.2346 74.0744 23.667 73.0326 24.4356 72.2642C25.2042 71.4958 26.2463 71.0635 27.3333 71.0622ZM2.73333 27.3407C2.73333 26.53 2.9738 25.7375 3.42431 25.0635C3.87482 24.3894 4.51516 23.864 5.26433 23.5538C6.01351 23.2436 6.83788 23.1624 7.6332 23.3205C8.42853 23.4787 9.15908 23.8691 9.73247 24.4423C10.3059 25.0156 10.6964 25.7459 10.8546 26.541C11.0128 27.3361 10.9316 28.1603 10.6212 28.9093C10.3109 29.6582 9.78541 30.2984 9.11117 30.7488C8.43693 31.1992 7.64424 31.4396 6.83333 31.4396C5.74634 31.4383 4.70422 31.0061 3.93559 30.2376C3.16697 29.4692 2.7346 28.4274 2.73333 27.3407V27.3407ZM6.83333 50.5678C7.64424 50.5678 8.43693 50.8082 9.11117 51.2586C9.78541 51.7089 10.3109 52.3491 10.6212 53.0981C10.9316 53.8471 11.0128 54.6712 10.8546 55.4663C10.6964 56.2614 10.3059 56.9918 9.73247 57.565C9.15908 58.1383 8.42853 58.5286 7.6332 58.6868C6.83788 58.845 6.01351 58.7638 5.26433 58.4535C4.51516 58.1433 3.87482 57.6179 3.42431 56.9439C2.9738 56.2698 2.73333 55.4773 2.73333 54.6667C2.7346 53.58 3.16697 52.5381 3.93559 51.7697C4.70422 51.0013 5.74634 50.569 6.83333 50.5678V50.5678ZM82 27.3407C82.0008 26.1064 81.667 24.895 81.0339 23.8354C80.4009 22.7758 79.4923 21.9075 78.4049 21.3231C77.3175 20.7386 76.092 20.4598 74.8587 20.5163C73.6254 20.5728 72.4305 20.9625 71.4012 21.6439L60.3653 10.611C60.9206 9.77083 61.2831 8.81828 61.427 7.82158C61.5709 6.82489 61.4926 5.80872 61.1976 4.84584C60.9027 3.88296 60.3984 2.9972 59.7209 2.25197C59.0435 1.50675 58.2095 0.92051 57.2789 0.535232C56.3482 0.149955 55.3439 -0.024826 54.3377 0.0234049C53.3316 0.0716357 52.3486 0.341685 51.4591 0.814215C50.5696 1.28675 49.7956 1.95006 49.1925 2.75667C48.5895 3.56328 48.1723 4.49322 47.9708 5.47989H34.03C33.7623 4.15995 33.1107 2.94841 32.157 1.99723C31.2033 1.04605 29.9898 0.397567 28.6689 0.133126C27.348 -0.131316 25.9783 5.35046e-05 24.7318 0.510757C23.4852 1.02146 22.4173 1.88876 21.6618 3.00388C20.9064 4.119 20.4971 5.43229 20.4853 6.77904C20.4735 8.12578 20.8598 9.44603 21.5956 10.5742C22.3314 11.7023 23.384 12.5882 24.6215 13.1206C25.8589 13.653 27.226 13.8083 28.5514 13.567L29.3452 15.5514L31.8831 14.5366L31.0876 12.5505C32.6049 11.5518 33.6634 9.99134 34.03 8.21249H47.9717C48.3381 9.9912 49.3962 11.5516 50.9133 12.5505L49.5719 15.903L52.1096 16.9179L53.4503 13.5672C55.1813 13.8831 56.9674 13.5158 58.433 12.5425L69.4689 23.5753C68.4952 25.0406 68.1278 26.8262 68.4439 28.5567L58.2589 32.6294L59.274 35.1667L69.4608 31.0929C69.9554 31.8442 70.5931 32.4908 71.3377 32.9957C72.0822 33.5006 72.9189 33.8539 73.8 34.0355V47.9735C72.0208 48.3399 70.46 49.3977 69.4608 50.9145L65.424 49.3L64.4089 51.8372L68.4439 53.4507C68.1278 55.1811 68.4952 56.9667 69.4689 58.432L66.7697 61.1304L68.7025 63.0627L71.4017 60.3643C72.2421 60.9193 73.195 61.2816 74.1919 61.4253C75.1888 61.5691 76.2052 61.4907 77.1683 61.1957C78.1314 60.9007 79.0173 60.3965 79.7627 59.7192C80.508 59.0419 81.0943 58.2081 81.4796 57.2777C81.8649 56.3473 82.0397 55.3433 81.9914 54.3374C81.9431 53.3316 81.6729 52.3489 81.2002 51.4597C80.7275 50.5705 80.064 49.7967 79.2572 49.1939C78.4504 48.5911 77.5202 48.174 76.5333 47.9726V34.0355C78.0758 33.7185 79.4618 32.8796 80.4576 31.66C81.4534 30.4405 81.9981 28.915 82 27.3407V27.3407ZM27.3333 10.9451C26.5224 10.9451 25.7297 10.7047 25.0555 10.2543C24.3813 9.80391 23.8557 9.16375 23.5454 8.41477C23.2351 7.6658 23.1539 6.84164 23.3121 6.04654C23.4703 5.25143 23.8608 4.52108 24.4342 3.94783C25.0076 3.37459 25.7381 2.98421 26.5335 2.82605C27.3288 2.6679 28.1532 2.74907 28.9023 3.0593C29.6515 3.36954 30.2918 3.89491 30.7424 4.56897C31.1929 5.24303 31.4333 6.03551 31.4333 6.84619C31.4321 7.9329 30.9997 8.97473 30.2311 9.74315C29.4624 10.5116 28.4203 10.9438 27.3333 10.9451V10.9451ZM54.6667 10.9451C53.8558 10.9451 53.0631 10.7047 52.3888 10.2543C51.7146 9.80391 51.1891 9.16375 50.8788 8.41477C50.5684 7.6658 50.4872 6.84164 50.6454 6.04654C50.8036 5.25143 51.1941 4.52108 51.7675 3.94783C52.3409 3.37459 53.0715 2.98421 53.8668 2.82605C54.6621 2.6679 55.4865 2.74907 56.2357 3.0593C56.9848 3.36954 57.6252 3.89491 58.0757 4.56897C58.5262 5.24303 58.7667 6.03551 58.7667 6.84619C58.7654 7.9329 58.333 8.97473 57.5644 9.74315C56.7958 10.5116 55.7537 10.9438 54.6667 10.9451V10.9451ZM79.2667 54.6667C79.2667 55.4773 79.0262 56.2698 78.5757 56.9439C78.1252 57.6179 77.4848 58.1433 76.7357 58.4535C75.9865 58.7638 75.1621 58.845 74.3668 58.6868C73.5715 58.5286 72.8409 58.1383 72.2675 57.565C71.6941 56.9918 71.3036 56.2614 71.1454 55.4663C70.9872 54.6712 71.0684 53.8471 71.3788 53.0981C71.6891 52.3491 72.2146 51.7089 72.8888 51.2586C73.5631 50.8082 74.3558 50.5678 75.1667 50.5678C76.2537 50.569 77.2958 51.0013 78.0644 51.7697C78.833 52.5381 79.2654 53.58 79.2667 54.6667ZM75.1667 31.4396C74.3558 31.4396 73.5631 31.1992 72.8888 30.7488C72.2146 30.2984 71.6891 29.6582 71.3788 28.9093C71.0684 28.1603 70.9872 27.3361 71.1454 26.541C71.3036 25.7459 71.6941 25.0156 72.2675 24.4423C72.8409 23.8691 73.5715 23.4787 74.3668 23.3205C75.1621 23.1624 75.9865 23.2436 76.7357 23.5538C77.4848 23.864 78.1252 24.3894 78.5757 25.0635C79.0262 25.7375 79.2667 26.53 79.2667 27.3407C79.2654 28.4274 78.833 29.4692 78.0644 30.2376C77.2958 31.0061 76.2537 31.4383 75.1667 31.4396V31.4396ZM28.7 28.707V60.1319C28.7009 60.8563 28.9891 61.5509 29.5015 62.0631C30.0139 62.5754 30.7087 62.8636 31.4333 62.8645H46.4667V65.5971H31.4333C29.984 65.5954 28.5945 65.0191 27.5696 63.9945C26.5448 62.97 25.9683 61.5808 25.9667 60.1319V28.707H28.7ZM60.1333 61.4982V46.5659C60.1353 45.8479 59.9948 45.1367 59.72 44.4733C59.4452 43.81 59.0415 43.2078 58.5323 42.7015L56.0333 40.2034V50.0018L58.3664 52.3342L56.4336 54.2665L53.7003 51.5339L49.0826 46.9175C48.9403 46.7753 48.7714 46.6624 48.5854 46.5855C48.3995 46.5085 48.2002 46.4689 47.999 46.4689C47.7978 46.4689 47.5985 46.5085 47.4126 46.5856C47.2267 46.6626 47.0577 46.7754 46.9154 46.9177C46.7732 47.06 46.6603 47.2289 46.5833 47.4147C46.5063 47.6006 46.4667 47.7998 46.4667 48.001C46.4667 48.2022 46.5064 48.4014 46.5834 48.5873C46.6604 48.7732 46.7733 48.9421 46.9156 49.0843L51.5331 53.7005C51.7565 53.9239 51.8956 54.2177 51.9268 54.532C51.9579 54.8464 51.8792 55.1618 51.7039 55.4246C51.0088 56.47 50.6018 57.6802 50.5238 58.9331C50.4458 60.186 50.6997 61.4373 51.2597 62.5608L51.7893 63.6197C51.8842 63.8094 51.9335 64.0186 51.9333 64.2308V65.5971H49.2V64.5534L48.8146 63.7828C48.1254 62.4002 47.7701 60.8753 47.7772 59.3306C47.7843 57.7859 48.1536 56.2644 48.8554 54.8882L44.9826 51.0164C44.1883 50.2154 43.7438 49.1325 43.7462 48.0046C43.7487 46.8767 44.198 45.7957 44.9958 44.9982C45.7935 44.2007 46.8748 43.7516 48.003 43.7492C49.1312 43.7468 50.2144 44.1913 51.0156 44.9854L53.3 47.2692V23.2418C53.2991 22.5173 53.0109 21.8228 52.4985 21.3105C51.9861 20.7982 51.2913 20.51 50.5667 20.5092H47.3113L46.3223 22.4866C46.2088 22.7135 46.0343 22.9043 45.8184 23.0377C45.6026 23.1711 45.3538 23.2418 45.1 23.2418H36.9C36.6462 23.2418 36.3974 23.1711 36.1816 23.0377C35.9657 22.9043 35.7912 22.7135 35.6777 22.4866L34.6887 20.5092H31.4333C30.7087 20.51 30.0139 20.7982 29.5015 21.3105C28.9891 21.8228 28.7009 22.5173 28.7 23.2418V25.9744H25.9667V23.2418C25.9683 21.7928 26.5448 20.4037 27.5696 19.3791C28.5945 18.3545 29.984 17.7782 31.4333 17.7766H50.5667C52.016 17.7782 53.4055 18.3545 54.4304 19.3791C55.4552 20.4037 56.0317 21.7928 56.0333 23.2418V36.3388L60.4649 40.7692C61.2287 41.5286 61.8343 42.432 62.2466 43.427C62.6588 44.422 62.8696 45.4889 62.8667 46.5659V61.4982H60.1333ZM38.2667 57.3993H43.7333V60.1319H38.2667V57.3993ZM44.1336 40.6035C43.3019 39.7738 42.1749 39.3079 41 39.3079C39.8251 39.3079 38.6981 39.7738 37.8664 40.6035L35.9336 38.6712C37.2783 37.3299 39.1004 36.5766 41 36.5766C42.8996 36.5766 44.7217 37.3299 46.0664 38.6712L44.1336 40.6035ZM48.2336 37.1676C47.2837 36.2179 46.1559 35.4646 44.9148 34.9507C43.6736 34.4367 42.3434 34.1722 41 34.1722C39.6566 34.1722 38.3263 34.4367 37.0852 34.9507C35.8441 35.4646 34.7163 36.2179 33.7664 37.1676L31.8336 35.2355C34.2666 32.8086 37.5631 31.4457 41 31.4457C44.4369 31.4457 47.7334 32.8086 50.1664 35.2355L48.2336 37.1676ZM42.3667 45.1026V47.8352H39.6333V45.1026H42.3667ZM34.1667 45.1026H36.9V47.8352H34.1667V45.1026Z" fill="black"/>
</svg>
