<svg width="82" height="82" viewBox="0 0 82 82" fill="none" xmlns="http://www.w3.org/2000/svg">
<path d="M57.154 24.6137C56.8768 23.812 56.3566 23.1167 55.6659 22.6244C54.9752 22.1321 54.1482 21.8672 53.3 21.8667H51.9333V19.1333H53.3C54.3864 19.1301 55.4274 18.6971 56.1956 17.9289C56.9638 17.1607 57.3968 16.1197 57.4 15.0333V4.1C57.3968 3.01361 56.9638 1.97264 56.1956 1.20445C55.4274 0.43625 54.3864 0.00324459 53.3 0H4.1C3.01361 0.00324459 1.97264 0.43625 1.20445 1.20445C0.43625 1.97264 0.00324459 3.01361 0 4.1V15.0333C0.00324459 16.1197 0.43625 17.1607 1.20445 17.9289C1.97264 18.6971 3.01361 19.1301 4.1 19.1333H5.46667V21.8667H4.1C3.01361 21.8699 1.97264 22.3029 1.20445 23.0711C0.43625 23.8393 0.00324459 24.8803 0 25.9667V36.9C0.00324459 37.9864 0.43625 39.0274 1.20445 39.7956C1.97264 40.5638 3.01361 40.9968 4.1 41H5.46667V43.7333H4.1C3.01361 43.7366 1.97264 44.1696 1.20445 44.9378C0.43625 45.706 0.00324459 46.7469 0 47.8333V58.7667C0.00324459 59.8531 0.43625 60.894 1.20445 61.6622C1.97264 62.4304 3.01361 62.8634 4.1 62.8667H30.0667V73.8C30.0667 79.1847 43.132 82 56.0333 82C68.9347 82 82 79.1847 82 73.8V32.8C82 27.5657 69.6863 24.7777 57.154 24.6137ZM4.1 16.4C3.73754 16.4 3.38992 16.256 3.13362 15.9997C2.87732 15.7434 2.73333 15.3958 2.73333 15.0333V4.1C2.73333 3.73754 2.87732 3.38992 3.13362 3.13362C3.38992 2.87732 3.73754 2.73333 4.1 2.73333H53.3C53.6625 2.73333 54.0101 2.87732 54.2664 3.13362C54.5227 3.38992 54.6667 3.73754 54.6667 4.1V15.0333C54.6667 15.3958 54.5227 15.7434 54.2664 15.9997C54.0101 16.256 53.6625 16.4 53.3 16.4H4.1ZM49.2 19.1333V21.8667H43.7333V19.1333H49.2ZM41 19.1333V21.8667H16.4V19.1333H41ZM13.6667 19.1333V21.8667H8.2V19.1333H13.6667ZM30.0667 60.1333H4.1C3.73754 60.1333 3.38992 59.9893 3.13362 59.733C2.87732 59.4767 2.73333 59.1291 2.73333 58.7667V47.8333C2.73333 47.4709 2.87732 47.1233 3.13362 46.867C3.38992 46.6107 3.73754 46.4667 4.1 46.4667H30.0667V60.1333ZM8.2 43.7333V41H13.6667V43.7333H8.2ZM30.0667 43.7333H16.4V41H30.0667V43.7333ZM30.0667 32.8V38.2667H4.1C3.73754 38.2667 3.38992 38.1227 3.13362 37.8664C2.87732 37.6101 2.73333 37.2625 2.73333 36.9V25.9667C2.73333 25.6042 2.87732 25.2566 3.13362 25.0003C3.38992 24.744 3.73754 24.6 4.1 24.6H53.3C53.365 24.6071 53.4291 24.6208 53.4913 24.641C41.4647 24.9827 30.0667 27.7707 30.0667 32.8ZM79.2667 73.8C79.2667 75.6587 71.0667 79.2667 56.0333 79.2667C41 79.2667 32.8 75.6587 32.8 73.8V63.9873C37.2963 66.8437 46.6853 68.3333 56.0333 68.3333C65.3813 68.3333 74.7703 66.8437 79.2667 63.9873V73.8ZM79.2667 60.1333C79.2667 61.992 71.0667 65.6 56.0333 65.6C41 65.6 32.8 61.992 32.8 60.1333V50.3207C37.2963 53.177 46.6853 54.6667 56.0333 54.6667C65.3813 54.6667 74.7703 53.177 79.2667 50.3207V60.1333ZM79.2667 46.4667C79.2667 48.3253 71.0667 51.9333 56.0333 51.9333C41 51.9333 32.8 48.3253 32.8 46.4667V36.654C37.2963 39.5103 46.6853 41 56.0333 41C65.3813 41 74.7703 39.5103 79.2667 36.654V46.4667ZM56.0333 38.2667C41 38.2667 32.8 34.6587 32.8 32.8C32.8 30.9413 41 27.3333 56.0333 27.3333C71.0667 27.3333 79.2667 30.9413 79.2667 32.8C79.2667 34.6587 71.0667 38.2667 56.0333 38.2667Z" fill="black"/>
</svg>
