<svg width="17" height="11" viewBox="0 0 17 11" fill="none" xmlns="http://www.w3.org/2000/svg">
<path fill-rule="evenodd" clip-rule="evenodd" d="M5.3885 6.67274V4.89612H10.305C10.3497 5.15521 10.3868 5.4143 10.3868 5.75482C10.3868 8.71586 8.39346 10.8182 5.3885 10.8182C2.50998 10.8182 0.181885 8.50118 0.181885 5.63638C0.181885 2.77157 2.50998 0.454559 5.3885 0.454559C6.79428 0.454559 7.96949 0.965339 8.87693 1.80923L7.4637 3.16391C7.07693 2.79378 6.40007 2.36443 5.3885 2.36443C3.61081 2.36443 2.1604 3.83014 2.1604 5.63638C2.1604 7.44261 3.61081 8.90833 5.3885 8.90833C7.44883 8.90833 8.22238 7.43521 8.34139 6.67274H5.3885ZM15.0579 4.89608H16.5455V6.3766H15.0579V7.85712H13.5703V6.3766H12.0827V4.89608H13.5703V3.41556H15.0579V4.89608Z" fill="#FCFEFF"/>
</svg>
