<svg width="82" height="82" viewBox="0 0 82 82" fill="none" xmlns="http://www.w3.org/2000/svg">
<path d="M66.4397 42.2012H70.0109C70.5696 44.9663 73.0181 47.0547 75.9455 47.0547C79.2839 47.0547 82 44.3386 82 41C82 37.6614 79.2839 34.9453 75.9453 34.9453C73.018 34.9453 70.5695 37.0337 70.0107 39.7988H66.4395C66.154 33.6804 63.7004 28.1191 59.8299 23.8687L66.2624 17.4364C67.5286 18.3584 69.0855 18.9044 70.7682 18.9044C74.9989 18.9044 78.4407 15.4624 78.4407 11.2318C78.4407 7.00107 74.9989 3.55931 70.7682 3.55931C66.5376 3.55931 63.0958 7.00123 63.0958 11.2318C63.0958 12.9145 63.6416 14.4714 64.5638 15.7376L58.1313 22.1699C53.8809 18.2996 48.3196 15.8459 42.2012 15.5605V11.9893C44.9663 11.4305 47.0547 8.98204 47.0547 6.05471C47.0547 2.71609 44.3386 0 41 0C37.6614 0 34.9453 2.71609 34.9453 6.05471C34.9453 8.98204 37.0337 11.4305 39.7988 11.9893V15.5603C33.6804 15.8459 28.1191 18.2995 23.8687 22.1698L17.4367 15.7379C18.3589 14.4716 18.9048 12.9145 18.9048 11.2318C18.9048 8.67694 17.6394 6.29782 15.5199 4.86763C14.9696 4.49671 14.2232 4.64149 13.8524 5.19146C13.4813 5.74144 13.6263 6.48793 14.1761 6.85901C15.6329 7.84189 16.5023 9.47661 16.5023 11.2318C16.5023 14.138 14.1378 16.5025 11.2316 16.5025C8.3254 16.5025 5.96102 14.138 5.96102 11.2318C5.96102 8.88483 7.53615 6.79879 9.79147 6.15897C10.4297 5.97783 10.8003 5.31366 10.6192 4.67544C10.438 4.03722 9.77353 3.6671 9.13579 3.84775C5.85195 4.77954 3.55867 7.81595 3.55867 11.2318C3.55867 15.4628 7.00075 18.9048 11.2318 18.9048C12.9147 18.9048 14.4717 18.3589 15.7379 17.4367L22.1699 23.8686C18.2995 28.119 15.8459 33.6802 15.5603 39.7987H11.9893C11.4305 37.0336 8.98204 34.9451 6.05471 34.9451C2.71609 34.9453 0 37.6614 0 41C0 44.3386 2.71609 47.0547 6.05471 47.0547C8.98204 47.0547 11.4305 44.9663 11.9893 42.2012H15.5605C15.846 48.3196 18.2996 53.8809 22.1701 58.1313L15.7376 64.5636C14.4714 63.6416 12.9145 63.0956 11.2318 63.0956C7.00107 63.0956 3.55931 66.5376 3.55931 70.7682C3.55931 74.9989 7.00107 78.4407 11.2318 78.4407C15.4624 78.4407 18.9042 74.9988 18.9042 70.7682C18.9042 69.0855 18.3584 67.5286 17.4362 66.2624L23.8687 59.8301C28.1191 63.7004 33.6804 66.1541 39.7988 66.4395V70.0105C37.0337 70.5693 34.9453 73.0178 34.9453 75.9451C34.9453 79.2839 37.6614 82 41 82C44.3386 82 47.0547 79.2839 47.0547 75.9453C47.0547 73.018 44.9663 70.5695 42.2012 70.0107V66.4397C48.3196 66.1541 53.8809 63.7005 58.1313 59.8302L64.5633 66.2621C63.6411 67.5284 63.0952 69.0855 63.0952 70.7682C63.0952 74.9991 66.5372 78.4413 70.7682 78.4413C74.9993 78.4413 78.4413 74.9993 78.4413 70.7682C78.4413 69.9377 78.309 69.1198 78.0481 68.3367C77.8382 67.7075 77.1577 67.3673 76.5289 67.577C75.8995 67.7868 75.5593 68.467 75.7691 69.0964C75.9482 69.6337 76.0391 70.1963 76.0391 70.7681C76.0391 73.6743 73.6746 76.0388 70.7684 76.0388C67.8622 76.0388 65.4977 73.6744 65.4977 70.7681C65.4977 67.8617 67.8622 65.4973 70.7684 65.4973C71.4335 65.4973 72.0822 65.6197 72.6962 65.8611C73.313 66.1037 74.0108 65.7999 74.2536 65.1825C74.4962 64.5651 74.1924 63.8679 73.575 63.6251C72.6799 63.2734 71.7357 63.095 70.7686 63.095C69.0856 63.095 67.5286 63.641 66.2624 64.5631L59.8304 58.1313C63.7004 53.8809 66.1541 48.3196 66.4397 42.2012ZM75.9453 37.3476C77.9593 37.3476 79.5977 38.986 79.5977 41C79.5977 43.014 77.9593 44.6524 75.9453 44.6524C73.9313 44.6524 72.2929 43.014 72.2929 41C72.2929 38.986 73.9315 37.3476 75.9453 37.3476ZM70.7682 5.96166C73.6743 5.96166 76.0383 8.32588 76.0383 11.2318C76.0383 14.1378 73.6741 16.502 70.7682 16.502C67.8624 16.502 65.4981 14.1378 65.4981 11.2318C65.4981 8.32572 67.8624 5.96166 70.7682 5.96166ZM37.3476 6.05471C37.3476 4.04074 38.9862 2.40234 41 2.40234C43.0138 2.40234 44.6524 4.04074 44.6524 6.05471C44.6524 8.06867 43.0138 9.70707 41 9.70707C38.9862 9.70707 37.3476 8.06851 37.3476 6.05471ZM6.05471 44.6524C4.04074 44.6524 2.40234 43.014 2.40234 41C2.40234 38.986 4.04074 37.3476 6.05471 37.3476C8.06867 37.3476 9.70691 38.986 9.70691 41C9.70691 43.014 8.06851 44.6524 6.05471 44.6524ZM41 17.9337C53.7188 17.9337 64.0663 28.2812 64.0663 41C64.0663 53.7188 53.7188 64.0663 41 64.0663C28.2812 64.0663 17.9337 53.719 17.9337 41C17.9337 28.281 28.2812 17.9337 41 17.9337ZM11.2318 76.0383C8.32572 76.0383 5.96166 73.6741 5.96166 70.7682C5.96166 67.8622 8.32588 65.498 11.2318 65.498C14.1376 65.498 16.5019 67.8622 16.5019 70.7682C16.5019 73.6743 14.1376 76.0383 11.2318 76.0383ZM44.6524 75.9453C44.6524 77.9593 43.0138 79.5977 41 79.5977C38.9862 79.5977 37.3476 77.9593 37.3476 75.9453C37.3476 73.9313 38.9862 72.2929 41 72.2929C43.0138 72.2929 44.6524 73.9315 44.6524 75.9453Z" fill="black"/>
<path d="M27.4108 55.7904H34.1942C34.1979 55.7904 34.2014 55.7909 34.2051 55.7909C34.2087 55.7909 34.2123 55.7904 34.216 55.7904H38.1973C38.8608 55.7904 39.3984 55.2526 39.3984 54.5892C39.3984 53.9259 38.8608 53.3881 38.1973 53.3881H35.4062V51.3541C35.4062 50.6907 34.8686 50.1529 34.2051 50.1529C33.5415 50.1529 33.0039 50.6907 33.0039 51.3541V53.3881H28.6119V47.4719C28.6119 44.5657 30.9757 42.2012 33.8809 42.2012H48.1188C51.0242 42.2012 53.3878 44.5657 53.3878 47.4719V53.3881H48.9958V51.3541C48.9958 50.6907 48.4582 50.1529 47.7946 50.1529C47.1311 50.1529 46.5935 50.6907 46.5935 51.3541V53.3881H43.8027C43.1392 53.3881 42.6016 53.9259 42.6016 54.5892C42.6016 55.2526 43.1392 55.7904 43.8027 55.7904H47.7841C47.7878 55.7904 47.7913 55.7909 47.795 55.7909C47.7986 55.7909 47.8022 55.7904 47.8058 55.7904H54.5893C55.2528 55.7904 55.7904 55.2526 55.7904 54.5892V47.4719C55.7904 43.2409 52.3492 39.7988 48.1191 39.7988H47.2274C49.1073 38.0976 50.2905 35.6399 50.2905 32.9108C50.2905 27.7881 46.1229 23.6205 41.0002 23.6205C35.8774 23.6205 31.7098 27.7881 31.7098 32.9108C31.7098 35.6399 32.8931 38.0976 34.773 39.7988H33.8812C29.6512 39.7988 26.2099 43.2409 26.2099 47.4719V54.5892C26.2096 55.2526 26.7474 55.7904 27.4108 55.7904ZM34.112 32.9108C34.112 29.1129 37.2019 26.0228 41 26.0228C44.7981 26.0228 47.888 29.1127 47.888 32.9108C47.888 36.7089 44.7981 39.7988 41 39.7988C37.2019 39.7988 34.112 36.7089 34.112 32.9108Z" fill="black"/>
</svg>
