<svg width="82" height="82" viewBox="0 0 82 82" fill="none" xmlns="http://www.w3.org/2000/svg">
<path d="M77.8174 7.94327H44.2129L41.5144 5.24496C40.9262 4.65686 40.1424 4.33287 39.3073 4.33287C38.4723 4.33287 37.6884 4.65686 37.098 5.2472L36.8486 5.49752C35.7821 4.92384 34.6669 4.46163 33.5132 4.11489V3.75999C33.5132 2.03991 32.1139 0.640625 30.3937 0.640625H26.1357C24.4158 0.640625 23.0164 2.03991 23.0164 3.75999V4.11489C21.8626 4.46163 20.7473 4.924 19.681 5.49752L19.4295 5.24496C18.8413 4.6567 18.0575 4.33271 17.2222 4.33271C16.3872 4.33271 15.6034 4.6567 15.0151 5.2448L12.317 7.94327H4.18264C1.87639 7.94327 0 9.81966 0 12.1259V59.3224C0 61.6286 1.87639 63.505 4.18264 63.505H27.4953L24.2674 70.0493H21.6414C18.5232 70.0493 15.9863 72.586 15.9863 75.7043V79.7578C15.9863 80.6424 16.7035 81.3594 17.5879 81.3594H57.3409H75.7859C79.2125 81.3594 82 78.2823 82 74.5V36.2195V12.1259C82 9.81966 80.1236 7.94327 77.8174 7.94327ZM13.67 18.2088C14.0465 16.5409 14.7009 14.9629 15.6149 13.5186C16.015 12.8867 15.9243 12.0618 15.3966 11.5319L14.3295 10.4606L17.2222 7.56786L18.2846 8.63466C18.8144 9.16638 19.642 9.25911 20.2761 8.85776C21.7284 7.93846 23.3069 7.28439 24.9672 6.91362C25.6992 6.75011 26.2197 6.10051 26.2197 5.3505V3.84375H30.3101V5.3505C30.3101 6.10051 30.8306 6.75011 31.5625 6.91362C33.2228 7.28439 34.8012 7.93846 36.2534 8.85776C36.8877 9.25911 37.7154 9.16638 38.2448 8.63466L39.3075 7.56786L42.2002 10.4606L41.1331 11.5319C40.6052 12.0618 40.5146 12.8867 40.9146 13.5186C41.8286 14.9629 42.483 16.5409 42.8596 18.2088C43.0244 18.9391 43.6732 19.4577 44.4219 19.4577H45.9286V23.5481H44.4219C43.6732 23.5481 43.0244 24.0667 42.8596 24.797C42.4821 26.4695 41.8277 28.0491 40.9146 29.4917C40.5146 30.1236 40.6052 30.9484 41.1331 31.4784L42.1978 32.5474L39.3073 35.4381L38.2426 34.3734C37.7126 33.8436 36.8865 33.752 36.2534 34.1527C34.8013 35.0718 33.223 35.7261 31.5625 36.0968C30.8306 36.2603 30.3101 36.9099 30.3101 37.6599V39.1665H26.2197V37.6599C26.2197 36.9099 25.6992 36.2603 24.9672 36.0968C23.3067 35.7261 21.7282 35.072 20.2761 34.1527C19.6432 33.7521 18.8171 33.8437 18.287 34.3735L17.2224 35.4381L14.3319 32.5474L15.3966 31.4784C15.9243 30.9484 16.015 30.1238 15.6149 29.4917C14.702 28.0491 14.0476 26.4695 13.67 24.797C13.5052 24.0667 12.8564 23.5481 12.1077 23.5481H10.6011V19.4577H12.1078C12.8564 19.4577 13.5052 18.9391 13.67 18.2088ZM3.20312 59.3224V55.8209H51.127V60.302H4.18264C3.64259 60.302 3.20312 59.8626 3.20312 59.3224ZM31.0671 63.5052H51.1272V70.0495H27.8392L31.0671 63.5052ZM19.1896 75.7043C19.1896 74.3524 20.2896 73.2524 21.6416 73.2524H25.2552C25.2574 73.2524 25.2598 73.2527 25.2621 73.2527C25.264 73.2527 25.2658 73.2524 25.2677 73.2524H51.127V74.5C51.127 75.8434 51.4801 77.097 52.0871 78.1562H19.1894V75.7043H19.1896ZM78.7969 74.5C78.7969 76.482 77.4183 78.1562 75.7861 78.1562H57.3411C55.7091 78.1562 54.3301 76.482 54.3301 74.5V36.2195C54.3301 34.2376 55.7089 32.5633 57.3411 32.5633H58.9886V36.1649C58.9886 37.9175 60.4164 39.3433 62.1715 39.3433H70.9555C72.7106 39.3433 74.1384 37.9175 74.1384 36.1649V32.5633H75.7861C77.4181 32.5633 78.7969 34.2376 78.7969 36.2195V74.5ZM62.1917 36.1402V32.5634H70.9353V36.1402H62.1917ZM78.7969 30.222C77.9043 29.6737 76.8779 29.3603 75.7861 29.3603H57.3411C53.9145 29.3603 51.127 32.4374 51.127 36.2197V52.6177H3.20312V12.1259C3.20312 11.595 3.65172 11.1464 4.18264 11.1464H11.1739C11.2981 11.7041 11.5729 12.2339 12.0045 12.6653L12.2576 12.9193C11.6856 13.9829 11.2229 15.0982 10.8741 16.2546H10.5218C8.7993 16.2546 7.39794 17.6559 7.39794 19.3784V23.6319C7.39794 25.3519 8.7993 26.7512 10.5218 26.7512H10.874C11.2231 27.9101 11.6858 29.027 12.2577 30.091L12.0069 30.3427C10.7912 31.5586 10.7912 33.5369 12.0069 34.7525L15.0151 37.7608C16.2325 38.978 18.2126 38.9779 19.4295 37.7608L19.6787 37.5116C20.7457 38.0856 21.862 38.5485 23.0165 38.8955V39.2505C23.0165 40.9704 24.4158 42.3698 26.1359 42.3698H30.3938C32.1139 42.3698 33.5133 40.9705 33.5133 39.2505V38.8955C34.6679 38.5485 35.784 38.0858 36.851 37.5116L37.1004 37.761C38.3172 38.9777 40.2974 38.978 41.5147 37.761L44.523 34.7528C45.7387 33.537 45.7387 31.5588 44.5252 30.3451L44.2722 30.091C44.8438 29.027 45.3066 27.9103 45.6557 26.7514H46.0079C47.7306 26.7514 49.1319 25.3521 49.1319 23.632V19.3786C49.1319 17.6561 47.7306 16.2547 46.0079 16.2547H45.6556C45.3068 15.0984 44.8442 13.9831 44.2722 12.9195L44.523 12.6677C44.9554 12.2353 45.231 11.7047 45.3551 11.1464H77.8175C78.3484 11.1464 78.797 11.595 78.797 12.1259V30.222H78.7969Z" fill="black"/>
</svg>
