<svg width="78" height="78" viewBox="0 0 78 78" fill="none" xmlns="http://www.w3.org/2000/svg">
<path d="M73.5938 15.9375H59.5V1.84375C59.5 1.50394 59.365 1.17805 59.1247 0.937769C58.8844 0.697488 58.5586 0.5625 58.2188 0.5625H19.7812C19.4414 0.5625 19.1155 0.697488 18.8753 0.937769C18.635 1.17805 18.5 1.50394 18.5 1.84375V15.9375H4.40625C3.38776 15.9405 2.41185 16.3465 1.69167 17.0667C0.971484 17.7869 0.565542 18.7628 0.5625 19.7812V60.7812C0.565542 61.7997 0.971484 62.7756 1.69167 63.4958C2.41185 64.216 3.38776 64.622 4.40625 64.625H29.8006L28.9422 69.75H27.4688C27.2701 69.7514 27.0744 69.7983 26.8967 69.8871C26.719 69.976 26.564 70.1044 26.4438 70.2625L22.6 75.3875C22.4572 75.5779 22.3703 75.8042 22.3489 76.0412C22.3276 76.2782 22.3726 76.5164 22.479 76.7292C22.5854 76.9421 22.749 77.1211 22.9514 77.2461C23.1538 77.3712 23.3871 77.4375 23.625 77.4375H54.375C54.6129 77.4375 54.8462 77.3712 55.0486 77.2461C55.251 77.1211 55.4146 76.9421 55.521 76.7292C55.6274 76.5164 55.6724 76.2782 55.6511 76.0412C55.6297 75.8042 55.5428 75.5779 55.4 75.3875L51.5562 70.2625C51.436 70.1044 51.281 69.976 51.1033 69.8871C50.9256 69.7983 50.7299 69.7514 50.5312 69.75H49.0578L48.1994 64.625H73.5938C74.6122 64.622 75.5882 64.216 76.3083 63.4958C77.0285 62.7756 77.4345 61.7997 77.4375 60.7812V19.7812C77.4345 18.7628 77.0285 17.7869 76.3083 17.0667C75.5882 16.3465 74.6122 15.9405 73.5938 15.9375ZM21.0625 3.125H56.9375V28.75H21.0625V3.125ZM49.8906 72.3125L51.8125 74.875H26.1875L28.1094 72.3125H49.8906ZM31.5431 69.75L32.4016 64.625H45.5984L46.4569 69.75H31.5431ZM74.875 60.7812C74.875 61.1211 74.74 61.4469 74.4997 61.6872C74.2595 61.9275 73.9336 62.0625 73.5938 62.0625H4.40625C4.06644 62.0625 3.74055 61.9275 3.50027 61.6872C3.25999 61.4469 3.125 61.1211 3.125 60.7812V56.9375H74.875V60.7812ZM74.875 54.375H3.125V19.7812C3.125 19.4414 3.25999 19.1155 3.50027 18.8753C3.74055 18.635 4.06644 18.5 4.40625 18.5H18.5V30.0312C18.5 30.3711 18.635 30.697 18.8753 30.9372C19.1155 31.1775 19.4414 31.3125 19.7812 31.3125H58.2188C58.5586 31.3125 58.8844 31.1775 59.1247 30.9372C59.365 30.697 59.5 30.3711 59.5 30.0312V18.5H73.5938C73.9336 18.5 74.2595 18.635 74.4997 18.8753C74.74 19.1155 74.875 19.4414 74.875 19.7812V54.375Z" fill="black"/>
<path d="M71.0312 33.875H55.6562C55.3164 33.875 54.9906 34.01 54.7503 34.2503C54.51 34.4905 54.375 34.8164 54.375 35.1562V36.4375H44.125V35.1562C44.125 34.8164 43.99 34.4905 43.7497 34.2503C43.5094 34.01 43.1836 33.875 42.8438 33.875H35.1562C34.8164 33.875 34.4905 34.01 34.2503 34.2503C34.01 34.4905 33.875 34.8164 33.875 35.1562V36.4375H23.625V35.1562C23.625 34.8164 23.49 34.4905 23.2497 34.2503C23.0095 34.01 22.6836 33.875 22.3438 33.875H6.96875C6.62894 33.875 6.30305 34.01 6.06277 34.2503C5.82249 34.4905 5.6875 34.8164 5.6875 35.1562V40.2812C5.6875 40.6211 5.82249 40.947 6.06277 41.1872C6.30305 41.4275 6.62894 41.5625 6.96875 41.5625H22.3438C22.6836 41.5625 23.0095 41.4275 23.2497 41.1872C23.49 40.947 23.625 40.6211 23.625 40.2812V39H33.875V40.2812C33.875 40.6211 34.01 40.947 34.2503 41.1872C34.4905 41.4275 34.8164 41.5625 35.1562 41.5625H37.7188V44.125H35.1562C34.8164 44.125 34.4905 44.26 34.2503 44.5003C34.01 44.7405 33.875 45.0664 33.875 45.4062V50.5312C33.875 50.8711 34.01 51.197 34.2503 51.4372C34.4905 51.6775 34.8164 51.8125 35.1562 51.8125H42.8438C43.1836 51.8125 43.5094 51.6775 43.7497 51.4372C43.99 51.197 44.125 50.8711 44.125 50.5312V45.4062C44.125 45.0664 43.99 44.7405 43.7497 44.5003C43.5094 44.26 43.1836 44.125 42.8438 44.125H40.2812V41.5625H42.8438C43.1836 41.5625 43.5094 41.4275 43.7497 41.1872C43.99 40.947 44.125 40.6211 44.125 40.2812V39H54.375V40.2812C54.375 40.6211 54.51 40.947 54.7503 41.1872C54.9906 41.4275 55.3164 41.5625 55.6562 41.5625H71.0312C71.3711 41.5625 71.697 41.4275 71.9372 41.1872C72.1775 40.947 72.3125 40.6211 72.3125 40.2812V35.1562C72.3125 34.8164 72.1775 34.4905 71.9372 34.2503C71.697 34.01 71.3711 33.875 71.0312 33.875ZM21.0625 39H8.25V36.4375H21.0625V39ZM41.5625 46.6875V49.25H36.4375V46.6875H41.5625ZM41.5625 39H36.4375V36.4375H41.5625V39ZM69.75 39H56.9375V36.4375H69.75V39Z" fill="black"/>
<path d="M31.6879 7.34424L24.0004 15.0317C23.7602 15.272 23.6253 15.5978 23.6253 15.9376C23.6253 16.2773 23.7602 16.6032 24.0004 16.8434L31.6879 24.5309L33.4996 22.7192L26.7179 15.9376L33.4996 9.15592L31.6879 7.34424Z" fill="black"/>
<path d="M46.3121 7.34424L44.5004 9.15592L51.2821 15.9376L44.5004 22.7192L46.3121 24.5309L53.9996 16.8434C54.2398 16.6032 54.3747 16.2773 54.3747 15.9376C54.3747 15.5978 54.2398 15.272 53.9996 15.0317L46.3121 7.34424Z" fill="black"/>
<path d="M41.6321 4.00128L33.9372 27.0618L36.3667 27.8725L44.0616 4.81198L41.6321 4.00128Z" fill="black"/>
</svg>
